<?xml version="1.0" encoding="utf-8"?>
<!-- Generator: Adobe Illustrator 26.0.1, SVG Export Plug-In . SVG Version: 6.00 Build 0)  -->
<svg version="1.1" id="Ñëîé_1" xmlns="http://www.w3.org/2000/svg" xmlns:xlink="http://www.w3.org/1999/xlink" x="0px" y="0px"
	 viewBox="0 0 2700 2000" style="enable-background:new 0 0 2700 2000;" xml:space="preserve">
<style type="text/css">
	.st0{fill:#ffe9a7;}
	.st1{fill:#e5d494;}
	.st2{fill:#DCE6FF;}
	.st3{fill:#EEF7FF;}
	.st4{fill:#7689D6;}
	.st5{fill:#F49F9F;}
	.st6{fill:#FCB4B4;}
	.st7{fill:#8A9EDD;}
	.st8{fill:#EB5648;}
	.st9{fill:#B8D2FF;}
	.st10{fill:#C92828;}
	.st11{fill:#3A72AA;}
	.st12{fill:#F99370;}
	.st13{fill:#FFC107;}
	.st14{fill:#E8C0A6;}
	.st15{fill:#395B96;}
	.st16{fill:#23659B;}
	.st17{fill:#163260;}
	.st18{fill:#234270;}
	.st19{fill:#0B274F;}
	.st20{fill:#F4D4BE;}
	.st21{fill:#E57D61;}
	.st22{fill:#C16256;}
	.st23{fill:#163356;}
	.st24{fill:#103663;}
	.st25{fill:#662948;}
	.st26{fill:#0F2E54;}
	.st27{fill:#CE3932;}
	.st28{fill:#8E4A35;}
	.st29{fill:#F9F8F3;}
</style>
<g>
	<g id="_x37_">
		<path class="st0" d="M161.32,1475.2c0,0-16.7,98.91,52.5,123.68c94.65,33.87,650.26,122.87,515.28,190.5
			c-76.19,38.18,38.9,90.02,410.02,109.1c371.12,19.09,1007.93-55.7,793.78-166.37c-214.15-110.66,658.36-26.72,605.21-256.91
			H161.32z"/>
		<path class="st1" d="M579.74,1473.99c0,0-280.31-630.51-78.59-770.91c134.83-93.84,277.74,113.03,448.32,3.59
			c151.86-97.43-59.86-342.87,193.52-407.08c266.33-67.49,484.52,479.06,708,403.49c271.17-91.7,540.91,94.45,307.8,772.11
			L579.74,1473.99z"/>
		<path class="st2" d="M360.42,1419.94c-4.71-12.53-9.36-25.52-13.84-38.6l11.03-2.85c4.45,12.99,9.07,25.9,13.75,38.35
			L360.42,1419.94z M2333.97,1403.75l-11.42-1.23c1.9-13.34,3.7-26.78,5.35-39.94l11.44,1.09
			C2337.68,1376.88,2335.87,1390.37,2333.97,1403.75z M333.88,1342.46c-4.03-12.93-7.93-26.09-11.61-39.13l11.18-2.38
			c3.66,12.96,7.54,26.05,11.54,38.9L333.88,1342.46z M2344.05,1323.54l-11.46-0.94c1.46-13.4,2.8-26.87,4.01-40.05l11.47,0.79
			C2346.87,1296.57,2345.51,1310.1,2344.05,1323.54z M311.75,1263.97c-3.32-13.17-6.49-26.48-9.4-39.58l11.3-1.9
			c2.9,13.01,6.04,26.25,9.34,39.33L311.75,1263.97z M2351.38,1243.09l-11.49-0.63c0.97-13.39,1.83-26.89,2.54-40.13l11.5,0.47
			C2353.21,1216.09,2352.35,1229.65,2351.38,1243.09z M294.1,1184.62c-2.56-13.33-4.93-26.77-7.04-39.95l11.4-1.38
			c2.1,13.09,4.45,26.44,7,39.69L294.1,1184.62z M2355.68,1162.46l-11.5-0.29c0.45-13.44,0.76-26.96,0.92-40.17l11.51,0.11
			C2356.44,1135.37,2356.13,1148.95,2355.68,1162.46z M281.28,1104.55c-1.72-13.46-3.21-27.01-4.44-40.25l11.47-0.81
			c1.22,13.14,2.7,26.59,4.41,39.95L281.28,1104.55z M2345.14,1081.82c-0.14-13.46-0.43-26.97-0.87-40.16l11.5-0.29
			c0.45,13.26,0.74,26.84,0.88,40.37L2345.14,1081.82z M273.82,1023.95c-0.76-13.54-1.27-27.14-1.5-40.41l11.51-0.15
			c0.23,13.16,0.73,26.65,1.49,40.08L273.82,1023.95z M2342.42,1001.53c-0.79-13.44-1.76-26.92-2.89-40.07l11.48-0.74
			c1.13,13.23,2.11,26.79,2.9,40.3L2342.42,1001.53z M283.94,943.29l-11.51-0.21c0.32-13.58,0.94-27.18,1.84-40.42l11.49,0.59
			C284.86,916.36,284.25,929.84,283.94,943.29z M2335.54,921.46c-1.54-13.43-3.28-26.85-5.17-39.88l11.42-1.25
			c1.91,13.12,3.66,26.63,5.21,40.15L2335.54,921.46z M289.4,863.31l-11.45-1c1.56-13.53,3.47-27.05,5.67-40.19l11.39,1.44
			C292.84,836.55,290.95,849.93,289.4,863.31z M2323.92,841.85c-2.39-13.35-5.02-26.65-7.81-39.53l11.31-1.85
			c2.81,12.98,5.46,26.39,7.88,39.84L2323.92,841.85z M962.75,840.43c-15.99-2.19-27.56-8.52-43.58-19.45l7.27-7.75
			c14.04,9.55,24.18,15.27,37.54,17.25L962.75,840.43z M1002.68,816.63l-10.25-4.55c5.27-8.97,9.93-21.41,13.84-36.99l11.24,2.14
			C1013.34,793.88,1008.48,806.76,1002.68,816.63z M885.39,792.3c-9.17-8.87-18.97-19.09-29.95-31.22l9.04-6.19
			c10.83,11.96,20.47,22.02,29.47,30.73L885.39,792.3z M302.7,784.09l-11.3-1.91c2.98-13.35,6.36-26.67,10.03-39.57l11.17,2.4
			C308.97,757.76,305.64,770.9,302.7,784.09z M2306.81,763.05c-3.41-13.21-7.08-26.31-10.93-38.93l11.13-2.56
			c3.88,12.74,7.59,25.97,11.03,39.3L2306.81,763.05z M1025.27,736.97l-11.41-1.28c1.77-11.94,3.35-25.02,4.84-39.98l11.47,0.86
			C1028.66,711.68,1027.05,724.89,1025.27,736.97z M827.25,728.84c-9.36-10.98-19.06-22.59-27.42-32.61l9.32-5.87
			c8.34,10,18.03,21.58,27.35,32.53L827.25,728.84z M1669.86,728.02c-8.96,0-17.76-2.33-26.14-6.92l6.14-8.46
			c12.59,6.91,24.97,6.92,38.35,1.41l4.95,9.03C1685.25,726.36,1677.42,728.02,1669.86,728.02z M324.84,706.46l-11.01-2.93
			c4.57-13,9.59-25.93,14.91-38.42l10.79,3.47C334.29,680.91,329.35,693.65,324.84,706.46z M1730.8,696.93l-8.46-6.79
			c8.73-8.22,18.08-18.35,28.6-30.98l9.32,5.87C1749.47,677.98,1739.84,688.42,1730.8,696.93z M1611,690.05
			c-7.45-9.99-14.83-21.75-22.56-35.96l10.4-4.28c7.52,13.8,14.65,25.18,21.82,34.79L1611,690.05z M2283.16,685.62
			c-4.64-12.96-9.58-25.72-14.7-37.92l10.81-3.43c5.18,12.35,10.19,25.27,14.88,38.38L2283.16,685.62z M772.55,663.62
			c-10.53-12.51-19.31-22.78-27.62-32.32l9.18-6.04c8.35,9.58,17.16,19.9,27.73,32.45L772.55,663.62z M1033.62,656.18l-11.49-0.65
			c0.87-11.72,1.76-24.89,2.71-40.27l11.49,0.54C1035.39,631.22,1034.5,644.43,1033.62,656.18z M356.79,631.56l-10.53-4.04
			c6.32-12.44,13.05-24.65,20.21-36.59l10.21,4.62C369.63,607.3,363.01,619.32,356.79,631.56z M1786.63,631.55l-9.62-5.5
			c8.18-10.81,16.63-22.26,25.18-33.83l9.68,5.41C1803.3,609.24,1794.84,620.7,1786.63,631.55z M1569.91,616.76
			c-5.21-11.37-10.6-23.77-16.47-37.91l10.83-3.39c5.83,14.04,11.17,26.34,16.33,37.6L1569.91,616.76z M2251.53,610.52
			c-6.19-12.53-12.73-24.7-19.45-36.17l10.26-4.54c6.83,11.67,13.49,24.04,19.77,36.76L2251.53,610.52z M716.52,599.6
			c-10.44-11.27-20.16-21.3-29.72-30.66l8.61-6.64c9.68,9.48,19.51,19.63,30.07,31.02L716.52,599.6z M1038.74,575.45l-11.49-0.5
			c0.78-13.36,1.55-26.74,2.37-40.34l11.49,0.52C1040.28,548.73,1039.51,562.09,1038.74,575.45z M1837.11,563.85l-9.6-5.52
			c9.62-12.65,18.22-23.59,26.29-33.44l9.37,5.8C1855.17,540.46,1846.65,551.3,1837.11,563.85z M399.5,561.03l-9.7-5.38
			c9.04-12.31,18.37-23.43,27.72-33.05l8.79,6.46C417.29,538.33,408.27,549.09,399.5,561.03z M1538.07,540.68
			c-5.28-13.44-10.46-26.9-14.83-38.28l10.92-3.17c4.36,11.37,9.53,24.8,14.8,38.22L1538.07,540.68z M655.16,539.98
			c-11.76-9.95-23.33-18.75-34.38-26.14l7.02-7.93c11.4,7.62,23.31,16.67,35.39,26.9L655.16,539.98z M2209.73,539.55
			c-8.25-11.7-16.89-22.76-25.7-32.88l9.18-6.03c9.03,10.38,17.89,21.72,26.33,33.69L2209.73,539.55z M458.58,501.83l-6.98-7.95
			c13.74-9.11,28.05-15.69,42.52-19.53l3.37,9.57C484.33,487.41,471.24,493.44,458.58,501.83z M1890.93,498.78l-8.94-6.3
			c10.79-11.58,21.02-21.54,31.27-30.45l8.14,7.07C1911.44,477.76,1901.47,487.47,1890.93,498.78z M1043.68,494.84l-11.49-0.6
			c1-14.54,1.99-27.75,3.02-40.37l11.48,0.71C1045.66,467.17,1044.68,480.34,1043.68,494.84z M582.73,492.75
			c-14.36-6.21-28.49-10.18-41.99-11.78l1.56-9.91c14.74,1.76,30.07,6.04,45.55,12.74L582.73,492.75z M2154.42,476.58
			c-11.08-9.87-22.55-18.58-34.1-25.89l6.78-8.09c12.06,7.64,24.03,16.72,35.56,26.98L2154.42,476.58z M1508.57,464.12
			c-5.73-14.88-10.44-27.02-14.85-38.19l10.89-3.24c4.42,11.2,9.14,23.36,14.88,38.26L1508.57,464.12z M1955.84,443.56l-6.6-8.2
			c14.15-8.61,28.45-14.98,42.49-18.95l3.55,9.51C1982.34,429.59,1969.07,435.52,1955.84,443.56z M2081.42,431.3
			c-14.25-5.23-28.68-8.46-42.89-9.61l1.07-9.96c15.38,1.25,30.95,4.73,46.29,10.36L2081.42,431.3z M1050.38,414.43l-11.46-0.88
			c1.43-14.04,2.99-27.59,4.64-40.29l11.44,1.12C1053.36,386.99,1051.81,400.47,1050.38,414.43z M1478.41,387.87
			c-5.56-13.49-10.8-25.83-16.02-37.7l10.75-3.57c5.25,11.94,10.52,24.34,16.11,37.9L1478.41,387.87z M1060.85,334.48l-11.39-1.43
			c2.33-14.01,4.89-27.48,7.61-40.03l11.31,1.85C1065.69,307.29,1063.16,320.61,1060.85,334.48z M1445.29,312.82
			c-6.18-12.93-12.42-25.3-18.53-36.77l10.44-4.2c6.17,11.59,12.47,24.08,18.71,37.13L1445.29,312.82z M1078.15,255.72l-11.17-2.42
			c4.01-13.97,8.44-27.13,13.15-39.11l10.89,3.24C1086.42,229.14,1082.09,242.02,1078.15,255.72z M1406.32,240.15
			c-7.57-12.39-15.3-24.02-22.98-34.58l9.73-5.35c7.84,10.76,15.72,22.62,23.42,35.23L1406.32,240.15z M1108.31,180.77l-10.32-4.43
			c7.56-13.31,15.94-25.08,24.91-34.98l9.04,6.19C1123.46,156.91,1115.52,168.09,1108.31,180.77z M1356.96,173.13
			c-10.06-10.96-20.44-20.67-30.85-28.85l7.72-7.42c10.87,8.55,21.68,18.65,32.13,30.03L1356.96,173.13z M1164.05,121.63l-6.2-8.43
			c13.63-7.58,28.66-12.52,44.65-14.66l1.75,9.89C1189.85,110.36,1176.33,114.8,1164.05,121.63z M1289.79,121.62
			c-13.41-6.28-27.37-10.58-41.51-12.77l2.02-9.85c15.34,2.38,30.47,7.02,44.95,13.81L1289.79,121.62z"/>
		<path class="st3" d="M2413.84,1194.02c-95.51-12.3-86.86,172.62-223,172.62c-124.47,0-191.08-413.16-327.67-329.13
			c-549.12,337.82-121.87-237.04-491.11-248.28c-166.96-5.08-278.21,149.66-319.24,423.64
			c-59.47,247.68-197.39-188.91-339.32-148.32c-90.21,25.8-79.88,302.09-204.35,302.09c-136.14,0-127.17-155.5-222.68-143.2
			c-102.83,13.25-126.93,254.35-126.93,254.35h2380.89C2540.45,1477.79,2516.67,1207.27,2413.84,1194.02z"/>
		<path class="st2" d="M2322.33,1388.11c-87.86-5.25-73.53,42.22-198.77,42.22c-114.51,0-111.36-106.39-187.99-129
			c-141.12-41.64-257.46,169.1-312.17,63.33c-103.91-280.64-406.97-421.38-546.79,0c-54.71,105.76-182.65-82.96-312.17-63.33
			c-79.72,12.08-73.48,129-187.99,129c-125.25,0-110.91-47.47-198.77-42.22c-94.6,5.66-122.86,89.68-122.86,89.68h2190.36
			C2445.18,1477.79,2416.93,1393.77,2322.33,1388.11z"/>
	</g>
	<g id="_x36_">
		<rect x="713.94" y="534.94" class="st4" width="1385.85" height="992.22"/>
		<rect x="713.94" y="534.94" class="st5" width="1385.85" height="135.89"/>
		<rect x="623.34" y="534.94" class="st6" width="1385.85" height="856.33"/>
		<rect x="623.34" y="670.84" class="st7" width="1385.85" height="856.33"/>
		<rect x="713.94" y="761.43" class="st1" width="155.44" height="155.44"/>
		<rect x="888.81" y="761.43" class="st1" width="155.44" height="155.44"/>
		<rect x="1063.68" y="761.43" class="st1" width="155.44" height="155.44"/>
		<rect x="1238.55" y="761.43" class="st1" width="155.44" height="155.44"/>
		<rect x="1413.42" y="761.43" class="st1" width="155.44" height="155.44"/>
		<rect x="1588.29" y="761.43" class="st1" width="155.44" height="155.44"/>
		<rect x="1763.16" y="761.43" class="st1" width="155.44" height="155.44"/>
		<rect x="713.94" y="934.66" class="st1" width="155.44" height="155.44"/>
		<rect x="888.81" y="934.66" class="st1" width="155.44" height="155.44"/>
		<rect x="1063.68" y="934.66" class="st1" width="155.44" height="155.44"/>
		<rect x="1238.55" y="934.66" class="st1" width="155.44" height="155.44"/>
		<rect x="1413.42" y="934.66" class="st1" width="155.44" height="155.44"/>
		<rect x="1588.29" y="934.66" class="st1" width="155.44" height="155.44"/>
		<rect x="1763.16" y="934.66" class="st1" width="155.44" height="155.44"/>
		<rect x="713.94" y="1107.9" class="st1" width="155.44" height="155.44"/>
		<rect x="888.81" y="1107.9" class="st1" width="155.44" height="155.44"/>
		<rect x="1063.68" y="1107.9" class="st1" width="155.44" height="155.44"/>
		<rect x="1238.55" y="1107.9" class="st1" width="155.44" height="155.44"/>
		<rect x="1413.42" y="1107.9" class="st1" width="155.44" height="155.44"/>
		<rect x="1588.29" y="1107.9" class="st1" width="155.44" height="155.44"/>
		<rect x="1763.16" y="1107.9" class="st1" width="155.44" height="155.44"/>
		<rect x="713.94" y="1281.13" class="st1" width="155.44" height="155.44"/>
		<rect x="888.81" y="1281.13" class="st1" width="155.44" height="155.44"/>
		<rect x="1063.68" y="1281.13" class="st1" width="155.44" height="155.44"/>
		<rect x="1238.55" y="1281.13" class="st1" width="155.44" height="155.44"/>
		<rect x="1413.42" y="1281.13" class="st1" width="155.44" height="155.44"/>
		<rect x="1588.29" y="1281.13" class="st1" width="155.44" height="155.44"/>
		<rect x="1763.16" y="1281.13" class="st1" width="155.44" height="155.44"/>
		<g>
			<circle class="st4" cx="791.66" cy="602.89" r="36.08"/>
			<path class="st7" d="M835.61,454.47c-75,2.44-57.25,87.47-58.9,137.55c-8.96,11.52,0.17,29.85,14.95,29.38
				c14.77,0.47,23.91-17.86,14.95-29.38v-78.65c0-15.99,13.01-29,29-29c29.61,1.56,30.24,27.47,29,50.58h29.9
				C899.31,494.64,880.39,455.21,835.61,454.47z"/>
		</g>
		<path class="st8" d="M801.29,839.15l36.92-36.92c2.66-2.66,2.66-6.97,0-9.63c-2.66-2.66-6.97-2.66-9.63,0l-36.92,36.92
			l-36.92-36.92c-2.66-2.66-6.97-2.66-9.63,0c-2.66,2.66-2.66,6.97,0,9.63l36.92,36.92l-36.92,36.92c-2.66,2.66-2.66,6.97,0,9.63
			c1.33,1.33,3.07,1.99,4.81,1.99c1.74,0,3.48-0.66,4.81-1.99l36.92-36.92l36.92,36.92c1.33,1.33,3.07,1.99,4.81,1.99
			s3.48-0.66,4.81-1.99c2.66-2.66,2.66-6.97,0-9.63L801.29,839.15z"/>
		<g>
			<circle class="st4" cx="1314.88" cy="602.89" r="36.08"/>
			<path class="st7" d="M1358.83,454.47c-75,2.44-57.25,87.47-58.9,137.55c-8.96,11.52,0.17,29.85,14.95,29.38
				c14.77,0.47,23.91-17.86,14.95-29.38v-78.65c0-15.99,13.01-29,29-29c29.61,1.56,30.24,27.47,29,50.58h29.9
				C1422.53,494.64,1403.61,455.21,1358.83,454.47z"/>
		</g>
		<g>
			<circle class="st4" cx="1576.49" cy="602.89" r="36.08"/>
			<path class="st7" d="M1620.44,454.47c-75,2.44-57.25,87.47-58.9,137.55c-8.96,11.52,0.17,29.85,14.95,29.38
				c14.77,0.47,23.91-17.86,14.95-29.38v-78.65c0-15.99,13.01-29,29-29c29.61,1.56,30.24,27.47,29,50.58h29.9
				C1684.15,494.64,1665.22,455.21,1620.44,454.47z"/>
		</g>
		<rect x="2034.87" y="670.84" class="st9" width="9.06" height="856.33"/>
		<rect x="2065.06" y="670.84" class="st9" width="9.06" height="856.33"/>
		<rect x="2069.59" y="772.66" class="st8" width="55.8" height="130.46"/>
		<rect x="2039.4" y="869.43" class="st6" width="55.8" height="130.46"/>
		<polygon class="st7" points="791.09,1125.66 806.48,1171.09 854.45,1170.5 815.99,1199.17 831.38,1244.61 792.23,1216.9 
			753.77,1245.57 768.03,1199.77 728.87,1172.06 776.84,1171.46 		"/>
		<g>
			<path class="st10" d="M977.74,236.59c0,0,8.98-17.35,36.36-12.23c27.37,5.12,33.84,39.86,43.13,55.67
				c19.68,33.49,25.58,69.08,15.35,86.18c-11.36,18.99-36.43,11.56-73.05,8.16c-39.08-3.63-55.45-37.55-31.14-84.19L977.74,236.59z"
				/>
			<path class="st11" d="M989.1,317.24c-10.71,15.7-17.54,92.23-17.77,98.18c-12.59-0.93-42.85-3.17-55.75-4.12
				c-3.64-28.02,33.5-85.47,67.39-92.28c0-0.01,0-0.01,0-0.01C986.78,317.71,989.1,317.24,989.1,317.24z"/>
			<g>
				<path class="st12" d="M830.35,739.17l54.43-0.6c-0.14-8.7-2.46-26.27-0.73-36.19c0,0-23.5,3.03-23.5,3.03
					c0.65,4.77,2.1,15.11-5.82,17.59c-10.26,3.21-21.42,2.22-27.82,10.11C825.25,735.76,827.22,739.2,830.35,739.17z"/>
				<path class="st13" d="M886.38,733.31c-0.2,1.84-0.69,3.64-1.6,5.26l-54.96,0.6c-2.67,0.03-4.64-2.58-3.78-5.11
					c2.02-5.91,9.17-14.55,34.49-16.15c0,0,8.65,2.47,22.79-0.25C883.32,717.67,887.21,725.84,886.38,733.31z"/>
				<path class="st14" d="M842.2,731.95c-0.43,0-0.85-0.26-1.03-0.68c-2.07-4.95-5.72-6.43-5.87-6.49c-2.92-4.43,5.4-1.35,7.93,5.63
					C843.54,731.12,842.97,731.96,842.2,731.95z"/>
				<path class="st14" d="M850.84,730.81c-0.47,0-0.91-0.3-1.06-0.77c-1.84-5.74-6.89-8.34-6.94-8.37
					c-2.66-5.16,7.02,0.29,9.06,7.68C852.14,730.05,851.58,730.82,850.84,730.81z"/>
				<path class="st14" d="M860.67,729.49c-0.46,0-0.88-0.28-1.05-0.74c-2.14-5.95-6.98-9.15-7.03-9.19
					c-2.06-5.42,6.74,1.08,9.13,8.43C861.99,728.7,861.43,729.5,860.67,729.49z"/>
				<path class="st15" d="M826.07,733.97l60.3-0.66c-0.2,1.84-0.69,3.64-1.6,5.26l-54.96,0.6
					C827.11,739.21,825.14,736.52,826.07,733.97z"/>
			</g>
			<path class="st11" d="M1002.79,531.36c-26.79-1.13-73.46-15.88-93.59,18.2c-22.04,37.23-16.64,116.2-14.41,154.36
				c-29.41,9.47-45.22,0-45.22,0c-12.53-78.12-53.79-256.07,84.19-231.38c0-0.01,92.54-0.01,92.54-0.01
				C1041.76,504.08,1027.92,530.83,1002.79,531.36z"/>
			<g>
				<path class="st12" d="M895.62,739.17l54.43-0.6c-0.14-8.7-2.46-26.27-0.73-36.19c0,0-23.5,3.03-23.5,3.03
					c0.65,4.77,2.28,15.11-5.82,17.58c-10.28,3.14-21.42,2.22-27.82,10.11C890.53,735.76,892.49,739.2,895.62,739.17z"/>
				<path class="st13" d="M951.65,733.31c-0.2,1.84-0.69,3.64-1.6,5.26l-54.96,0.6c-2.67,0.03-4.64-2.58-3.78-5.11
					c2.02-5.91,9.17-14.55,34.49-16.15c0,0,8.65,2.47,22.79-0.25C948.6,717.66,952.48,725.84,951.65,733.31z"/>
				<path class="st14" d="M907.47,731.94c-0.43,0-0.85-0.26-1.03-0.68c-2.07-4.95-5.72-6.43-5.87-6.49
					c-2.92-4.43,5.4-1.35,7.93,5.63C908.82,731.11,908.25,731.96,907.47,731.94z"/>
				<path class="st14" d="M916.11,730.8c-0.47,0-0.91-0.3-1.06-0.77c-1.84-5.74-6.89-8.34-6.94-8.36c-2.66-5.16,7.02,0.29,9.06,7.68
					C917.41,730.05,916.85,730.81,916.11,730.8z"/>
				<path class="st14" d="M925.95,729.49c-0.46,0-0.88-0.28-1.05-0.74c-2.14-5.95-6.98-9.15-7.03-9.19
					c-2.06-5.42,6.74,1.08,9.13,8.43C927.26,728.7,926.7,729.5,925.95,729.49z"/>
				<path class="st15" d="M891.34,733.97l60.3-0.66c-0.2,1.84-0.69,3.64-1.6,5.26l-54.96,0.6
					C892.38,739.21,890.41,736.51,891.34,733.97z"/>
			</g>
			<path class="st16" d="M941.28,472.53l-7.92,57.69c-34.6,13.63-36.93,51-40.09,91.98C877.26,558.89,878.49,493.92,941.28,472.53z"
				/>
			<path class="st11" d="M1037.66,534.03c-28.04,17.26-56.04-1.57-75.76,38.23c-15.91,34.85-6.99,101.46-2.62,131.65
				c-29.41,9.47-45.22,0-45.22,0c-17.44-67.39-57.32-224.01,55.38-231.38c30.86-0.98,71.41-0.71,98.69-2.36
				C1068.13,470.18,1075.7,510.61,1037.66,534.03z"/>
			<path class="st11" d="M1068.67,454.24c2.39,17.07-1.08,36.91-1.08,36.91c-36.43-11.58-69.56-12.65-124.9-20.38
				c34.95-104.69-46-31.44,46.4-153.53c0.22,0.02,22.67,2.05,22.88,2.06C1037.95,338.84,1054.69,364.75,1068.67,454.24z"/>
			<path class="st16" d="M941.88,391.92c-0.54,0-0.97-0.47-0.92-1c1.84-15.29,18.04-35.11,20.17-34.06
				c1.45,1.87-17.23,18.29-18.33,34.21C942.76,391.55,942.36,391.92,941.88,391.92z"/>
			<g id="_x31_5_2_">
				<polygon class="st17" points="845.03,478.52 967.5,478.52 943.12,388.75 821.38,388.75 				"/>
				<rect x="845.03" y="478.08" class="st18" width="122.48" height="6.1"/>
				<polygon class="st19" points="941.28,388.75 945.66,388.75 969.54,478.08 1027.67,478.08 1027.67,484.17 965.46,484.17 
					965.46,478.72 				"/>
			</g>
			<path class="st12" d="M1052.24,336.69c28.23,21.16,43.31,59.24,35.86,93.87c-2.86,19.45-15.13,37.95-34.33,43.46
				c-9.48,3.79-53.7,9.89-51.64-5.81c0.7-3.77,4.04-5.15,7.28-6.16c5.33-1.88,10.83-3.96,15.91-6.27
				c9.1-4.73,20.81-9.15,22.79-19.37c4.22-23.86-5.56-47.2-23.39-62.78c0.03,0.02-0.08-0.07,0.18,0.12
				C1000.73,355.76,1027.93,318.91,1052.24,336.69z"/>
			<path class="st11" d="M1069.17,469.76c-14.38,6.42-27.99,8.39-38.46,8.77c0,0,2.42-15.62-8.87-22.05
				c63.58-48.32-27.23-68.65-9.79-139.65C1080.22,318.04,1150.61,421.37,1069.17,469.76z"/>
			<path class="st12" d="M975.15,478.08c0,0,5.46-19.07,38.02-16.87l6.82,16.87H975.15z"/>
			<path class="st16" d="M1038.26,477.99c-4.66,0.52-7.55,0.53-7.55,0.53s2.42-15.62-8.87-22.05c0,0,2.78-1.81,6.41-5.01
				C1028.25,451.46,1040.62,460.54,1038.26,477.99z"/>
			<path class="st16" d="M1027.67,454.13c-0.82,0.02-1.26-1.09-0.61-1.63c28.23-25.16,14.4-51.78-2.39-69.03
				c-0.82-0.85,0.55-2.17,1.36-1.26C1043.89,400.06,1057.44,429.56,1027.67,454.13z"/>
			<path class="st16" d="M1037.66,478.09c-5.28-3.07,14.83-1.54,30.12-8.77c0.47-0.19,1.01,0.03,1.21,0.5
				c0.19,0.47-0.03,1.01-0.5,1.21C1052.68,477.52,1037.86,478.09,1037.66,478.09z"/>
			<path class="st20" d="M1018.35,345.39c-0.65,4.88-5.32,6.4-6.48,6.14c-16.4-7.01-4.73,15.12-11.48,17.38
				c-5.67,1.9-6.35-5.5-11.29-5.91c-7.18-0.59-8.64,3.32-11.16,0.95c-3.51-3.31,4.99-9.09,3.9-15.01c-0.77-4.16-9.03,0.02-8.92-8.54
				c0.13-8.41,9.75-21,10.06-21.39c0-0.01,0-0.01,0-0.01c6.06-3.38,19.24-1.84,25.22-1.77c0.09-0.6,3.86-0.41,3.86-0.41
				s2.64-0.58,5.18,0.38C1018.48,324.04,1019.65,338.07,1018.35,345.39z"/>
			<path class="st12" d="M989.65,309.1l-0.55,8.13c0,0-0.76,7.82-0.76,22.37c0,20.45,5.05,18.07,12.05,3.78
				c3.85-7.85,11.66-25.92,11.66-25.92s-0.04-5.35,0.39-8.63L989.65,309.1z"/>
			<path class="st21" d="M1016.9,285.82c-0.09,0.39-0.2,0.78-0.33,1.15c-0.49-0.4-3.28,13.14-4.29,23.45
				c-9.78,5.73-21.1,4.97-23.04,4.37c0.52-15.27,1.81-38.11,13.56-42.37C1010.67,269.93,1019.03,277.7,1016.9,285.82z"/>
			<path class="st10" d="M987.26,235.53c-29.54-3.54-34.22,43.08-14.15,60.24L987.26,235.53z"/>
			<path class="st12" d="M1022.08,268.39c1.42,10.18,1.52,22.12-4.17,30.9l-0.01,0c-15.54,25.42-66.97,9.03-52.88-21.11
				c2.07-3.85,3.24-8.52,3.39-12.49C968.88,224.07,1017.96,232.81,1022.08,268.39z"/>
			<path class="st22" d="M983.22,273.81c-1.41-1.41,0.84-3.59,2.21-2.14C986.83,273.08,984.58,275.26,983.22,273.81z"/>
			<path class="st22" d="M970.23,275.53c-1.41-1.41,0.84-3.59,2.21-2.14C973.85,274.81,971.6,276.99,970.23,275.53z"/>
			<path class="st22" d="M977.97,287.08c-2.6,0.41-6.36-0.26-3.9-3.38c2.31-2.36,2.58-8.74,2.58-8.8c0.02-0.75,1.2-0.71,1.16,0.04
				c-0.01,0.28-0.29,6.89-2.91,9.57c-0.3,0.3-0.61,0.72-0.39,0.98c0.62,0.73,3.54,0.85,5.22-0.32c0.26-0.18,0.62-0.12,0.81,0.14
				C980.97,286.54,978.87,286.8,977.97,287.08z"/>
			<path class="st21" d="M1022.08,268.39c1.42,10.18,1.52,22.12-4.17,30.9l-0.01,0c2.62-6.58,1.64-19.19,1.64-19.19l-3.62-4.63
				c-37.03-0.5-42.47-28.44-42.47-28.44C989.71,225.18,1020.15,244.92,1022.08,268.39z"/>
			<path class="st10" d="M976.28,243.53c0,0,5.51,27.51,39.02,29.17l8.98-9.3C1028.45,239.45,999.99,214.93,976.28,243.53z"/>
			<path class="st12" d="M1029.75,271.39c1.19,11.65-13.52,12.98-14.45,1.31C1014.11,261.05,1028.82,259.72,1029.75,271.39z"/>
			<path class="st22" d="M1026.28,268.38C1026.28,268.38,1026.28,268.38,1026.28,268.38c-1.5-4.62-10.38,0.31-6.6,0.49
				c0.02-0.2,3.95-2.56,5.18-0.52c-3.88,1.83-5.17,9.06-2.93,6.72c0-0.04,0.47-4.16,3.52-5.72
				C1026.97,279.87,1028.35,272.58,1026.28,268.38z"/>
			<path class="st20" d="M1025.24,278.35c0.52,1.61-2.02,2.39-2.49,0.77C1022.23,277.5,1024.77,276.72,1025.24,278.35z"/>
			<path class="st16" d="M988.34,374.26c0.05,3.37-5.25,3.37-5.2,0C983.09,370.89,988.39,370.89,988.34,374.26z"/>
			<path class="st16" d="M983.23,392.57c0.05,3.37-5.25,3.37-5.2,0C977.98,389.2,983.28,389.2,983.23,392.57z"/>
			<path class="st16" d="M983.23,409.05c0.05,3.37-5.25,3.37-5.2,0C977.98,405.67,983.28,405.67,983.23,409.05z"/>
			<path class="st16" d="M893.86,690.81c0.48,8.17,0.92,13.11,0.92,13.11c-29.41,9.47-45.22,0-45.22,0s-0.82-4.1-2.09-11.17
				C847.82,692.92,866.31,702.01,893.86,690.81z"/>
			<path class="st16" d="M959.28,703.92c-29.41,9.47-45.22,0-45.22,0s-1.07-3.79-2.74-10.32c0,0,16.3,8.43,46.43,0
				C958.63,700.06,959.28,703.92,959.28,703.92z"/>
			<path class="st21" d="M976.93,477.88c-5.79,0.18,15.28-14.27,21.56-10.74c0.05,0.51-0.32,0.96-0.83,1.02
				C985.81,469.4,977.93,477.85,976.93,477.88z"/>
			<path class="st21" d="M985.85,478.21c-4.39-1.87,9.25-5.09,16-6.91c0.5-0.11,0.99,0.22,1.09,0.72c0.1,0.5-0.22,0.99-0.72,1.09
				C995.04,474.59,986.58,478.13,985.85,478.21z"/>
			<path class="st22" d="M988.04,269.09c-0.14,0-0.29-0.05-0.41-0.14c-3.7-2.89-7.06-1.95-7.2-1.91c-0.35,0.1-0.71-0.1-0.82-0.44
				c-0.1-0.35,0.09-0.71,0.44-0.82c0.17-0.05,4.13-1.2,8.39,2.13c0.29,0.22,0.34,0.64,0.11,0.92
				C988.43,269,988.24,269.09,988.04,269.09z"/>
			<path class="st22" d="M968.7,270.68c-0.13,0-0.26-0.04-0.37-0.11c-0.3-0.2-0.38-0.61-0.18-0.91c0.09-0.13,2.14-3.12,5.56-2.99
				c0.36,0.01,0.65,0.32,0.63,0.68c-0.01,0.36-0.32,0.65-0.68,0.63c-2.69-0.09-4.4,2.39-4.42,2.41
				C969.12,270.58,968.91,270.68,968.7,270.68z"/>
			<path class="st22" d="M982.93,293.3c-0.86,0-1.62-0.31-2.1-0.93c-1.02-1.32-0.35-3.5,1.54-4.95c1.88-1.46,4.16-1.56,5.18-0.24
				c0,0,0,0,0,0c1.02,1.32,0.35,3.5-1.54,4.96C985.01,292.91,983.9,293.3,982.93,293.3z M985.45,287.58c-0.65,0-1.48,0.27-2.27,0.88
				c-1.37,1.06-1.78,2.49-1.3,3.11c0.48,0.62,1.97,0.58,3.33-0.48c1.37-1.06,1.78-2.48,1.3-3.11l0,0
				C986.31,287.72,985.92,287.58,985.45,287.58z"/>
		</g>
		<g>
			<circle class="st4" cx="1838.1" cy="602.89" r="36.08"/>
			<path class="st7" d="M1882.05,454.47c-75,2.44-57.25,87.47-58.9,137.55c-8.96,11.52,0.17,29.85,14.95,29.38
				c14.77,0.47,23.91-17.86,14.95-29.38v-78.65c0-15.99,13.01-29,29-29c29.61,1.56,30.24,27.47,29,50.58h29.9
				C1945.76,494.64,1926.84,455.21,1882.05,454.47z"/>
		</g>
		<g>
			<circle class="st4" cx="1053.27" cy="602.89" r="36.08"/>
			<path class="st7" d="M1097.22,454.47c-75,2.44-57.25,87.47-58.9,137.55c-8.96,11.52,0.17,29.85,14.95,29.38
				c14.77,0.47,23.91-17.86,14.95-29.38v-78.65c0-15.99,13.01-29,29-29c29.61,1.56,30.24,27.47,29,50.58h29.9
				C1160.92,494.64,1142,455.21,1097.22,454.47z"/>
		</g>
		<path class="st8" d="M1141.31,1070.82c-29.62,0-54.81-23.58-55.02-51.49c-0.12-16.48,6.83-30.72,19.07-39.06
			c12.91-8.8,30.22-9.88,47.47-2.96c3.49,1.4,5.18,5.36,3.78,8.85c-1.4,3.49-5.36,5.18-8.85,3.78c-13.17-5.28-25.5-4.72-34.74,1.58
			c-8.43,5.75-13.21,15.85-13.12,27.72c0.15,20.59,19.11,37.98,41.4,37.98c24.01,0,39.5-14.38,41.42-38.47
			c1.15-14.33-3.92-28.68-13.54-38.4c-9.21-9.29-21.79-13.65-36.39-12.62c-3.76,0.27-7.01-2.56-7.27-6.31
			c-0.27-3.75,2.56-7.01,6.31-7.27c23.59-1.68,38.59,8.11,47.02,16.61c12.38,12.49,18.9,30.83,17.45,49.06
			c-1.25,15.62-7.2,28.64-17.21,37.66C1169.39,1066.2,1156.33,1070.82,1141.31,1070.82z"/>
		<path class="st8" d="M1830.67,896.36c-1.91,0-3.75-0.81-5.05-2.24l-40.64-44.94c-2.52-2.79-2.31-7.09,0.48-9.61
			c2.79-2.52,7.09-2.31,9.61,0.48l34.51,38.16l56.33-92.98c1.95-3.21,6.13-4.24,9.35-2.29c3.21,1.95,4.24,6.13,2.29,9.35
			l-61.07,100.8c-1.11,1.84-3.03,3.04-5.17,3.25C1831.1,896.35,1830.88,896.36,1830.67,896.36z"/>
		<path id="_x32_2_1_" class="st7" d="M1721.05,1022.18l-0.38-21.52l-12.35,0.22c-1.04-3.82-2.58-7.43-4.55-10.76l8.67-8.98
			l-15.48-14.95l-8.35,8.64c-3.85-2.33-8.09-4.08-12.59-5.13l-0.22-12.71l-21.52,0.38l0.22,12.71c-4.14,1.13-8.03,2.84-11.59,5.06
			l-8.13-7.85l-14.95,15.48l8.13,7.85c-2.09,3.63-3.67,7.58-4.65,11.76l-12.35,0.22l0.38,21.52l12.35-0.22
			c1.21,4.46,3.11,8.63,5.57,12.4l-8.35,8.64l15.48,14.95l8.67-8.98c3.4,1.85,7.06,3.27,10.91,4.17l0.22,12.71l21.52-0.38
			l-0.22-12.71c4.14-1.13,8.03-2.84,11.59-5.06l9.48,9.15l14.95-15.48l-9.48-9.15c2.09-3.63,3.67-7.58,4.65-11.76L1721.05,1022.18z
			 M1667.64,1031.98c-25.67,1.98-28.83-36.91-3.26-39.19C1690.05,990.81,1693.21,1029.7,1667.64,1031.98z"/>
		<path class="st8" d="M1141.4,1192.42H966.53c-3.76,0-6.81-3.05-6.81-6.81s3.05-6.81,6.81-6.81h174.87c3.76,0,6.81,3.05,6.81,6.81
			S1145.16,1192.42,1141.4,1192.42z"/>
		<path class="st7" d="M1879.07,1135.89h-81.23c-1.45,0-2.62-1.17-2.62-2.62s1.17-2.62,2.62-2.62h81.23c1.45,0,2.62,1.17,2.62,2.62
			S1880.52,1135.89,1879.07,1135.89z"/>
		<path class="st7" d="M1879.07,1153.28h-81.23c-1.45,0-2.62-1.17-2.62-2.62s1.17-2.62,2.62-2.62h81.23c1.45,0,2.62,1.17,2.62,2.62
			S1880.52,1153.28,1879.07,1153.28z"/>
		<path class="st7" d="M1822.11,1170.67h-24.27c-1.45,0-2.62-1.17-2.62-2.62s1.17-2.62,2.62-2.62h24.27c1.45,0,2.62,1.17,2.62,2.62
			S1823.56,1170.67,1822.11,1170.67z"/>
	</g>
	<g id="_x35_">
		<path class="st12" d="M1798.73,1189.17c0,0-3.53-1.69-3.97-7.05l12.04-7.01C1806.8,1175.11,1803.06,1185.81,1798.73,1189.17z"/>
		<path class="st12" d="M1691.63,1285.72l1.11-0.16l1.25-0.2l2.55-0.44l5.17-0.92c3.45-0.65,6.91-1.36,10.35-2.1
			c6.89-1.45,13.72-3.12,20.37-5.03c6.64-1.91,13.19-3.98,19.25-6.47c3.03-1.24,5.95-2.57,8.67-3.99l1.98-1.08l1.87-1.12l0.7-0.41
			c0.22-0.11,0.43-0.28,0.66-0.42c0.44-0.3,0.9-0.63,1.36-1.01c1.86-1.49,3.78-3.58,5.6-5.97c1.82-2.4,3.56-5.1,5.19-7.98
			c3.25-5.76,6.09-12.15,8.68-18.73c2.58-6.6,4.82-13.45,6.87-20.4c1.04-3.47,2.01-6.98,2.92-10.5l1.32-5.3
			c0.43-1.75,0.85-3.58,1.22-5.23l0.04-0.18c0.8-3.59,4.35-5.86,7.95-5.07c3.13,0.69,5.25,3.49,5.22,6.57
			c-0.04,3.99-0.18,7.73-0.42,11.58c-0.23,3.82-0.53,7.65-0.9,11.47c-0.77,7.65-1.87,15.31-3.37,23.01
			c-1.5,7.71-3.47,15.44-6.32,23.25c-1.43,3.9-3.09,7.83-5.14,11.78c-2.07,3.94-4.52,7.92-7.8,11.8c-0.81,0.97-1.69,1.93-2.63,2.88
			c-0.48,0.47-0.93,0.95-1.45,1.41l-0.76,0.69c-0.26,0.24-0.52,0.46-0.72,0.63l-2.62,2.18l-2.64,2.03
			c-3.53,2.62-7.1,4.93-10.69,7.08c-3.59,2.15-7.19,4.11-10.81,5.95c-3.62,1.83-7.24,3.6-10.9,5.18c-7.31,3.2-14.66,6.07-22.07,8.69
			c-3.71,1.3-7.44,2.51-11.2,3.69l-5.67,1.71l-2.88,0.81l-1.47,0.4l-1.61,0.41l-0.06,0.02c-11.06,2.84-22.33-3.82-25.17-14.88
			s3.82-22.33,14.88-25.17C1690.21,1285.96,1690.93,1285.82,1691.63,1285.72z"/>
		<path class="st12" d="M1647.04,1325.77l-1.93,2.05l-1.86,1.94l-3.75,3.78c-2.51,2.5-5.03,4.97-7.6,7.41
			c-5.16,4.85-10.42,9.61-15.84,14.26c-5.45,4.64-11.1,9.12-17.07,13.45c-2.99,2.16-6.07,4.28-9.3,6.33
			c-3.24,2.05-6.63,4.02-10.41,5.83c-1.89,0.91-3.87,1.78-6.04,2.58c-0.56,0.2-1.08,0.4-1.67,0.58l-0.86,0.28l-0.43,0.14l-0.37,0.1
			l-2.92,0.77c-0.97,0.27-1.96,0.47-2.95,0.67c-0.99,0.2-1.97,0.42-2.96,0.59c-2,0.3-3.98,0.65-6,0.81
			c-8.01,0.84-16.14,0.43-23.85-1.24c-7.71-1.63-15.04-4.34-21.73-7.94c-3.34-1.81-6.53-3.83-9.58-6.03
			c-1.52-1.11-3.01-2.25-4.45-3.47c-0.72-0.61-1.43-1.24-2.14-1.89l-1.06-1l-1.17-1.15c-2.61-2.56-2.64-6.75-0.08-9.35
			c2.17-2.21,5.5-2.57,8.05-1.08l0.82,0.48l1.76,1.03c0.65,0.37,1.32,0.73,2,1.09c1.36,0.71,2.74,1.38,4.15,2
			c2.82,1.24,5.7,2.3,8.61,3.15c5.81,1.73,11.72,2.67,17.5,2.72c2.89,0.05,5.74-0.16,8.54-0.56c2.8-0.37,5.55-0.93,8.22-1.74
			c1.35-0.35,2.66-0.86,3.97-1.3c0.65-0.24,1.3-0.53,1.95-0.78c0.65-0.26,1.29-0.51,1.92-0.83l1.9-0.89l0.24-0.11l0.16-0.1
			l0.32-0.19c0.21-0.12,0.45-0.28,0.68-0.42c0.93-0.59,1.96-1.3,3.02-2.09c4.25-3.2,8.84-7.36,13.21-11.81
			c4.41-4.46,8.69-9.27,12.93-14.16c4.25-4.89,8.42-9.94,12.48-15.07c2.04-2.56,4.09-5.12,6.08-7.71l2.97-3.88l1.47-1.92l1.37-1.83
			l0.06-0.08c6.83-9.15,19.79-11.03,28.94-4.2c9.15,6.83,11.03,19.79,4.2,28.94C1648.07,1324.61,1647.56,1325.22,1647.04,1325.77z"
			/>
		<path class="st13" d="M1809.98,1267.55c-5.11,17.79-24.42,38.04-44.84,50.02c-18.35,10.77-39.86,18.51-58.74,22.06l-2.7-6.57
			l-20.67-50.29c0,0,52.56-8.26,73.08-22.78c12.6-8.92,31.34-41.55,39.38-61.5c0.68-1.7,1.29-3.31,1.81-4.81
			c0,0,5.62,3.21,14.55,0.26c0,0,0.37,1.86,0.84,5.12C1814.42,1210.87,1817.58,1241.07,1809.98,1267.55z"/>
		<path class="st13" d="M1642.82,1283.58l-11.64,78.05c-3.95,4.13-8.91,8.18-14.56,11.98c-14.46,9.7-33.48,17.69-51.81,20.73
			c-0.01,0-0.02,0.01-0.03,0.01c-7.07,1.17-14.03,1.61-20.59,1.13c-22.8-1.67-40.27-17.16-47.49-24.69
			c-2.35-2.46-3.62-4.07-3.62-4.07c6.96-3.48,8.3-10.98,8.3-10.98c1.76,0.74,3.5,1.4,5.21,1.98
			c55.03,18.84,88.95-37.33,103.75-54.99C1625.6,1284.53,1642.82,1283.58,1642.82,1283.58z"/>
		<path class="st23" d="M1616.62,1373.61c-14.46,9.7-33.48,17.69-51.81,20.73c37.94-11.6,47.93-46.49,47.93-46.49L1616.62,1373.61z"
			/>
		<path class="st23" d="M1765.14,1317.57c-18.35,10.77-39.86,18.51-58.74,22.06l-2.7-6.57l7.54-8.73
			C1711.24,1324.33,1732.64,1329.11,1765.14,1317.57z"/>
		<path class="st12" d="M1616.42,1750.35c-1.35,2.59,30.72,0.63,31.16,1.24c3.2-0.84,0.13-9.46-0.93-11.12
			c-6.69-8.87,1.42-49.48,1.17-59.86h-30.56c-0.32,10.32,7.31,51.1,0.91,59.84C1616.36,1743.62,1616.42,1746.25,1616.42,1750.35z"/>
		<path class="st12" d="M1692.84,1750.35c-1.35,2.59,30.72,0.63,31.16,1.24c3.2-0.84,0.13-9.46-0.93-11.12
			c-6.69-8.87,1.42-49.48,1.17-59.86h-30.56c-0.32,10.32,7.31,51.1,0.91,59.84C1692.78,1743.62,1692.84,1746.25,1692.84,1750.35z"/>
		<path class="st13" d="M1725.98,1752.69c0,0-4.89,1.71-15.63,1.7c-12.02,0-17.45-1.7-17.45-1.7s-0.12-1.23-0.13-3.13
			c0-3.98,0.53-10.9,3.92-15.58c0,0,12.42-4.2,24.21,0c0,0,4.78,3.98,5.08,16.05C1726,1750.88,1726,1751.76,1725.98,1752.69z"/>
		<path class="st24" d="M1725.98,1752.69c0,0-4.89,1.71-15.63,1.7c-12.02,0-17.45-1.7-17.45-1.7s-0.12-1.23-0.13-3.13
			c5.5,1.24,16.61,2.41,33.21,0.47C1726,1750.88,1726,1751.76,1725.98,1752.69z"/>
		<path class="st13" d="M1649.55,1752.69c0,0-4.89,1.71-15.63,1.7c-12.02,0-17.45-1.7-17.45-1.7s-0.12-1.23-0.13-3.13
			c0-3.98,0.53-10.9,3.92-15.58c0,0,12.42-4.2,24.21,0c0,0,4.78,3.98,5.08,16.05C1649.58,1750.88,1649.57,1751.76,1649.55,1752.69z"
			/>
		<path class="st11" d="M1730.7,1711.34c-0.5,5.03-0.81,7.8-0.81,7.8c-21.11,12.74-41.65,1.93-41.65,1.93
			c-5.29-70.32-20.33-206.22-20.27-205.49c-4.62,67.49-12.11,152.96-12.94,207.09c-27.08,10.12-44.95-1.6-44.95-1.6
			c-22.4-152.33-7.18-295.15-6.92-289.26c48.35,10.93,121.37-2.55,121.37-2.55C1748.65,1512.37,1734.43,1674.07,1730.7,1711.34z"/>
		<rect x="1653.37" y="1262.62" class="st12" width="20.13" height="23.77"/>
		<path class="st13" d="M1735.59,1451.96c-17.41,11.72-100.46,19.71-139.87,0.96c0-0.08,19.56-144.75,33.48-164.27
			c16.99-7.78,49.73-9.97,66.97-1.11C1714.53,1303.16,1735.53,1453.34,1735.59,1451.96z"/>
		<path class="st24" d="M1673.77,1281.88c-14.81,4.88-20.69,0.01-20.69,0.01l0.06-0.01l0.23-6.16c0,0,5.96,3.37,20.13,0
			L1673.77,1281.88z"/>
		<path class="st12" d="M1653.14,1271.98c17.33,6.93,33.33,2.83,41.99-6.09c14.07-14.32-1.48-31.33-1.97-46.55
			c-0.33-4.1-0.18-7.05-0.18-7.05C1634.28,1218.86,1650.04,1271.72,1653.14,1271.98z"/>
		<path class="st12" d="M1652.17,1269.85v13.33c0,0,6.39,10.74,22.56-0.12v-20.78L1652.17,1269.85z"/>
		<path class="st21" d="M1663.74,1267.55c3.04-0.38,14.99-2.27,16.02-8.53c1.03-6.27,2.31-8.82,2.31-8.82l6.16-10.45
			c-1.52-9.6,4.73-20.08,4.93-20.41c0-0.01,0-0.01,0-0.01c-0.33-4.1-0.18-7.05-0.18-7.05c-1.45,0.24-2.86,0.49-4.22,0.77l-9.85,6.58
			l-11,11.06C1667.91,1230.69,1660.7,1267.93,1663.74,1267.55z"/>
		<path class="st25" d="M1685.51,1236.41c0,0,0.65-13.56,7.45-21.11c14.57-16.17-0.98-23.33-11.73-24.89
			c-10.75-1.56-49.15,10-43.95,28.67c0,0-13.42,4.88-0.46,34.9c4.52,10.47,15.34,15.87,15.34,15.87s5.02-1.65,11.57-2.3
			c4.72-0.46,12.12-3.95,12.8-8.64C1677.71,1250.82,1680.25,1239.92,1685.51,1236.41z"/>
		<path class="st12" d="M1678.27,1244.2c1.66,4.84,6.17,7.68,10.07,6.34c3.9-1.34,5.71-6.35,4.05-11.18
			c-1.66-4.84-6.17-7.68-10.07-6.34C1678.42,1234.36,1676.6,1239.37,1678.27,1244.2z"/>
		<path class="st22" d="M1686.95,1236.44c-0.16-0.04-4.01-1-5.83,1.16c-0.47,0.55-0.73,1.25-0.83,2.08c0,0,0,0,0,0.01
			c-0.01,0.08-0.03,0.15-0.03,0.23c0,0,0,0,0,0c0,0,0,0,0,0c-0.11,1.53,0.36,3.5,1.43,5.9c0.12,0.27,0.41,0.41,0.69,0.34
			c0.03-0.01,0.07-0.02,0.1-0.03c0.3-0.13,0.44-0.49,0.3-0.79c-0.87-1.94-1.3-3.56-1.34-4.81c3.5,0.19,5.69,3.8,5.71,3.84
			c0.14,0.23,0.41,0.34,0.66,0.28c0.05-0.01,0.11-0.04,0.16-0.06c0.29-0.16,0.38-0.53,0.22-0.82c-0.11-0.18-2.5-4.23-6.61-4.47
			c0.1-0.35,0.24-0.67,0.45-0.92c1.34-1.59,4.59-0.78,4.62-0.78c0.32,0.08,0.64-0.11,0.73-0.43
			C1687.46,1236.85,1687.27,1236.53,1686.95,1236.44z"/>
		<path class="st24" d="M1649.55,1752.69c0,0-4.89,1.71-15.63,1.7c-12.02,0-17.45-1.7-17.45-1.7s-0.12-1.23-0.13-3.13
			c5.5,1.24,16.61,2.41,33.21,0.47C1649.58,1750.88,1649.57,1751.76,1649.55,1752.69z"/>
		<path class="st20" d="M1652.17,1279.24v-1.84c0,0,8.66,3.77,22.56-0.48l0,2.32C1674.73,1279.24,1661.52,1284.77,1652.17,1279.24z"
			/>
		<path class="st16" d="M1730.7,1711.34c-0.5,5.03-0.81,7.8-0.81,7.8c-21.11,12.74-41.65,1.93-41.65,1.93
			c-0.22-2.91-0.46-5.92-0.7-9.01C1687.53,1712.07,1703.68,1719.9,1730.7,1711.34z"/>
		<path class="st16" d="M1649.67,1714.7c3.88-62.37,4.01-160.61,18.3-199.12c-4.62,67.5-12.11,152.95-12.94,207.09
			c-27.08,10.12-44.95-1.6-44.95-1.6c-0.38-2.75-0.75-5.48-1.1-8.21C1608.97,1712.87,1628.78,1720.46,1649.67,1714.7z"/>
		<path class="st16" d="M1667.97,1515.58c0,0-8.62-10.96-9.2-28.4c0,0-3.1,18.52,6.88,35.42L1667.97,1515.58z"/>
		<path class="st23" d="M1687.25,1283.64L1687.25,1283.64c0,0.01-0.16,0.18-0.5,0.48c-1.02,0.91-3.59,3-7.71,4.92
			c-3.96,1.84-9.33,3.51-16.12,3.81c-6.26,0.28-11.28-0.92-15.07-2.51c-4.26-1.77-6.99-4.02-8.22-5.19
			c-0.51-0.47-0.75-0.76-0.75-0.76c8.22-1.81,13.29-2.01,13.29-2.01c5.58-0.81,16.92-0.35,22.57-0.23c0.24,0.01,0.48,0.01,0.72,0.03
			c0.81,0.03,1.62,0.09,2.43,0.18c0.02,0,0.05,0,0.08,0.01C1680.13,1282.55,1683.3,1282.93,1687.25,1283.64z"/>
		<path class="st13" d="M1652.17,1279.24c0,0-6.46,0.83-9.35,4.34c0,0,7.19,6.39,20.17,5.91c12.99-0.48,20.04-6.73,20.04-6.73
			s-3.46-2.72-8.3-3.52C1674.73,1279.24,1661.2,1284.37,1652.17,1279.24z"/>
		<path class="st13" d="M1775.49,1189.53c-1.05,0-2.05-0.64-2.45-1.68c-0.52-1.35,0.15-2.87,1.5-3.39l48.96-18.87
			c1.35-0.52,2.87,0.15,3.39,1.5s-0.15,2.87-1.5,3.39l-48.96,18.87C1776.12,1189.48,1775.8,1189.53,1775.49,1189.53z"/>
		<path class="st12" d="M1811.85,1189.17c0,0,2.59-13.11-3.75-17.65l-10.26,3.98c0,0,3.79,3.18,0.89,13.67
			C1798.73,1189.17,1801.63,1193.44,1811.85,1189.17z"/>
		<path class="st12" d="M1800.41,1176.85c1.16,2.3,0.84,5.52-0.29,6.09s-1.04-1.89-2.2-4.19s-2.68-2.34-2.68-2.34
			C1796.24,1172.81,1799.25,1174.55,1800.41,1176.85z"/>
		<path class="st12" d="M1809.69,1173.74c1.16,2.3,1.18,4.62,0.04,5.19c-1.13,0.57-2.99-0.83-4.15-3.12
			c-1.16-2.3-1.18-4.62-0.04-5.19C1806.67,1170.04,1808.53,1171.44,1809.69,1173.74z"/>
		<path class="st12" d="M1806.39,1175.03c1.16,2.3,1.18,4.62,0.04,5.19c-1.13,0.57-2.99-0.83-4.15-3.12
			c-1.16-2.3-1.18-4.62-0.04-5.19C1803.37,1171.34,1805.23,1172.74,1806.39,1175.03z"/>
		<path class="st12" d="M1803.14,1176.21c1.16,2.3,1.18,4.62,0.04,5.19c-1.13,0.57-2.99-0.83-4.15-3.12s-1.18-4.62-0.04-5.19
			C1800.13,1172.52,1801.99,1173.92,1803.14,1176.21z"/>
		<path class="st12" d="M1489.55,1334.97c-2.55,1.22,1.3,6.72,0.9,9.26c-4.05-2.05-7.53-5.29-7.56-5.29
			c-3.36-4.51-6.46-9.19-9.35-14.02c-7.5-4.1,3.92,14.13,4.71,16.12c-0.02,0.02-0.04,0.04-0.06,0.06
			c-4.42-3.89-8.64-8.02-12.48-12.49c-8.63-2.5,8.22,14.56,9.62,16.29c-0.01,0.01-0.01,0.03-0.02,0.04
			c-4.78-2.95-9.2-6.49-13.19-10.45c-8.92-1.75,9.54,14.25,11.45,15.46c0,0.02-0.01,0.04-0.01,0.07c-4.09-1.77-7.95-4.07-11.67-6.54
			c-8.54-0.44,9.4,11.14,11.27,12.05c0.97,1.28,8.08,5.47,17.64,8.54c3.13,1,8.05-6.78,7.4-9.95c-0.6-2.97-2.48-6.65-3.12-8
			C1494.25,1343.29,1492.95,1335,1489.55,1334.97z"/>
		<path class="st23" d="M1812.69,1199.06c-9.11,2.48-17.2-0.57-17.2-0.57c0.68-1.7,1.29-3.31,1.81-4.81c0,0,5.62,3.21,14.55,0.26
			C1811.85,1193.94,1812.22,1195.8,1812.69,1199.06z"/>
		<path class="st23" d="M1506.59,1357.72c0,0-1.2,9.41-9.89,13.07c-2.35-2.46-3.62-4.07-3.62-4.07c6.96-3.48,8.3-10.98,8.3-10.98
			C1503.14,1356.48,1504.88,1357.14,1506.59,1357.72z"/>
	</g>
	<g id="_x34_">
		<path class="st12" d="M978.02,1840.15l-0.88-0.46c0,0.62-0.76,2.76-1.38,2.76l-26.04,0.54c-0.62,0-1-1.16-1-1.78l-2.22-0.64
			c0-3.9,0.32-5.31,2.04-8.33c6.33-8.42-1.23-46.05-1.01-55.89c-1.56-2.69,27.43-0.58,27.83-1.21c0.65,0,1.16,0.56,1.11,1.21
			l-3.41,43.01C971.53,1827.51,977.8,1832.45,978.02,1840.15z"/>
		<path class="st12" d="M1085.87,1843.9h-51.88c-4.53-0.18-4.49-4.8-3.66-8.38c2.86-12.91-2.19-42.55-3.13-55.83
			c-0.25-2.43,1.66-4.54,4.1-4.54c38.28-0.39,25.79-3.45,22.82,37.84c-2.26,14.42,14.94,17.17,24.75,18.77
			C1085.34,1832.21,1096.14,1841.03,1085.87,1843.9z"/>
		<path class="st24" d="M1028.35,1838.51c0.14,2.54,1.4,5.45,4.35,5.38c0,0,53.81,0,53.81,0c12.69-4.71-6.33-21.55-31.17-21.45
			C1037.68,1827.3,1027.76,1813.53,1028.35,1838.51z"/>
		<path class="st24" d="M950.62,1843.9h23c11.21-1.53,3.13-23.04-11.5-21.48C947.46,1820.56,939.42,1842.39,950.62,1843.9z"/>
		<path class="st14" d="M1073.68,1836.61c0.45,0,0.88-0.27,1.06-0.71c2.07-5.1,5.8-6.66,5.95-6.73c2.91-4.59-5.54-1.32-8.07,5.87
			C1072.31,1835.77,1072.89,1836.63,1073.68,1836.61z"/>
		<path class="st14" d="M1064.8,1835.54c0.49,0,0.94-0.32,1.09-0.81c1.83-5.91,6.97-8.64,7.03-8.67c2.64-5.33-7.19,0.38-9.21,7.99
			C1063.47,1834.78,1064.05,1835.55,1064.8,1835.54z"/>
		<path class="st14" d="M1054.69,1834.3c0.47,0,0.92-0.3,1.08-0.77c2.14-6.14,7.07-9.48,7.12-9.51
			C1065.8,1816.14,1049.7,1832.19,1054.69,1834.3z"/>
		<path class="st14" d="M953.88,1829.25c6.39-3.88,16.19-0.38,16.23-0.1c6.67-1.44-9.1-7.07-16.8-2.03
			C952.3,1827.67,952.76,1829.3,953.88,1829.25z"/>
		<path class="st26" d="M1090.28,1838.51h-61.92c0.23,1.89,0.75,3.73,1.7,5.38h56.46
			C1089.29,1843.9,1091.27,1841.11,1090.28,1838.51z"/>
		<path class="st26" d="M950.62,1843.9h23c2.93,0,5.28-2.46,5.1-5.38h-33.2C945.35,1841.43,947.7,1843.9,950.62,1843.9z"/>
		<path class="st12" d="M1203.43,1466.67c34.27,18.52,34.08-27.5-0.77-16.87C1202.66,1449.8,1200.95,1458.98,1203.43,1466.67z"/>
		<path class="st13" d="M1107.44,1841.45c4.17,0,8.04-2.68,9.36-6.87l19.53-61.94h114.12c0,0-17.67,56.03-17.67,56.03
			c-4.03,12.17,15.06,17.99,18.73,5.91c58.63-185.93,123.43-391.39,181.76-576.35c4.04-12.21-15.12-17.95-18.73-5.91l-17.6,55.81
			h-114.12c0,0,15.74-49.91,15.74-49.91c4.04-12.17-15.11-18-18.73-5.91c-58.38,185.13-123.19,390.64-181.76,576.35
			C1096,1834.87,1100.95,1841.55,1107.44,1841.45z M1286.77,1657.49h-114.12l21.35-67.7h114.12L1286.77,1657.49z M1249.08,1415.11
			h114.12l-21.35,67.7h-114.12L1249.08,1415.11z M1335.66,1502.45l-21.35,67.7h-114.12l21.35-67.7H1335.66z M1390.75,1327.78
			l-21.35,67.7h-114.12l21.35-67.7H1390.75z M1142.52,1753.01l23.93-75.88h114.12l-24.03,76.19c-0.77-0.19-1.57-0.31-2.39-0.31
			H1142.52z"/>
		<path class="st10" d="M1084.84,1325.26c0,0,10.41-13.16,0.18-24.74l-11.33,1.72L1084.84,1325.26z"/>
		<path class="st13" d="M1069.81,1445.18c32.27,49.81,97.68,48.39,133.61,21.5l-0.76-16.87c-82.87,6.42-84.01-53.19-137.35-77.31
			C1065.32,1372.5,1069.25,1443.94,1069.81,1445.18z"/>
		<path class="st11" d="M942.52,1793.03c0.09,3.61,0.18,7.25,0.3,10.94c0,0,19.51,12.87,38.75,3.88
			c7.53-40.98,23.58-128.76,39.78-234.62c0.21-3.11,8.39,141.93-1.67,237.98c0,0,21.64,5.58,41.16-1.74
			c13.72-49,35.16-137.93,25.36-323.98c0,0-58.6-3.3-101.23-24.44C948.24,1503.66,938.09,1721.91,942.52,1793.03z"/>
		<path class="st12" d="M1060.25,1370.59c2.43-12.85,8.33-35.96-1.33-41.65c-6.8-3.73-16.4,0.99-15.54,9.51
			c0.72-0.3-1.09,23.27-3.63,29.48C1019.72,1370.43,1073.9,1398.91,1060.25,1370.59z"/>
		<path class="st21" d="M1043.36,1337.36c-0.01,0.36-0.01,0.73,0.02,1.09c0.53-0.23-0.31,12.8-1.87,22.1
			c8.07,5.45,17.88,5.13,19.73,5.07c2.94-13.49,6.93-30.4-2.32-36.68C1052.59,1324.88,1043.41,1329.72,1043.36,1337.36z"/>
		<path class="st16" d="M1048.53,1807.28c28.3-128.66,19.83-261.45,16.15-262.54C1062.8,1545.62,1070.92,1679.75,1048.53,1807.28z"
			/>
		<path class="st16" d="M962.93,1807.28c19.48-123.39,41.23-266.78,38.51-268.91C998.61,1538.77,976.5,1684.85,962.93,1807.28z"/>
		<path class="st12" d="M1036.48,1318.2c-3.06,8.84-5.25,19.48-1.73,28.31l0.01,0c0.14,0.36,0.29,0.7,0.47,1.04
			c0,0.01,0.01,0.01,0,0.02c6,11.39,19.53,17.63,32.92,14.99l0.01,0c11.04-2.91,18.34-10.9,18.31-20.1
			c-0.27-5.56-2.94-11.76-1.62-17.22C1092.86,1292.11,1048.29,1284,1036.48,1318.2z"/>
		<path class="st22" d="M1070.2,1329.89c1.5-1.01-0.12-3.35-1.59-2.3C1067.1,1328.61,1068.73,1330.94,1070.2,1329.89z"/>
		<path class="st22" d="M1081.48,1333.72c1.5-1.01-0.12-3.35-1.59-2.3C1078.39,1332.43,1080.01,1334.77,1081.48,1333.72z"/>
		<path class="st24" d="M1071.82,1448.59c8.67,12.44,26.2,24.63,42.91,31.73c-3.28-5.64-9.91-9.34-12.41-22.29
			c-4.73-24.56-16.34-48.45-16.34-48.45L1071.82,1448.59z"/>
		<path class="st21" d="M1036.48,1318.2c-3.06,8.84-5.25,19.48-1.73,28.31l0.01,0c0.14,0.36,0.29,0.7,0.47,1.04
			c-2.23-16.25,0.61-18.48,7.01-27.09c12.69-3.81,15.7-13.86,25.26-10.57c9.56,3.27,17.82,4.62,17.82,4.62
			C1082.32,1288.03,1045.75,1290.38,1036.48,1318.2z"/>
		<path class="st22" d="M1072.88,1342.78c2.2,0.68,5.34,0.63,3.75-2.44c-1.65-2.51-0.76-8.25-0.75-8.31
			c-1.53-2.83-2.02,6.07-0.13,8.89c1.22,2.1-3.16,1.13-4.43-0.26C1068.93,1340.24,1071.81,1342.73,1072.88,1342.78z"/>
		<path class="st13" d="M961.64,1523.57c28.37,21.47,97.96,27.87,126.29,17.62c9.55-4.04,10.89-36.21,9.78-67.8
			c-1.7-42.11-11.96-72.55-31.39-100.69c-0.24-0.1-3.93-1.74-6.05-2.1c0.09,3.85-0.78,14.96-20.51-2.68
			c-0.09,0.08-5.89-0.7-7.7,0.08c-1.89,1.43-23.25,15.33-23.79,17.59c-1.61,6.76-8.82,23.47-16.71,42.96
			c-9.12,22.79-21.32,45.96-25.33,67.3C964.66,1504.72,956.02,1515.2,961.64,1523.57z"/>
		<path class="st10" d="M1039,1305.73c11.6-24.32,27.01-18.24,27.01-18.24l0,0c19.58-13.39,46.59,5.8,27.23,21.75
			c-11.32,10.03-24.79-9.99-40.91,2.3c-6.48,4.94-10.49,7.99-19.07,8.74C1033.26,1320.28,1034.97,1312.01,1039,1305.73z"/>
		<path class="st12" d="M1029.1,1319.53c-3.11,10.18,9.78,13.97,12.66,3.72C1044.88,1313.06,1031.99,1309.28,1029.1,1319.53z"/>
		<path class="st22" d="M1031.09,1323.05c0.3,0.1,0.63-0.09,0.69-0.4c0.64-3.19,1.68-5.06,3.02-5.41c2.6-0.5,3.39,2.47,4.48,1.86
			c0.7-0.91-2.05-3.28-4.74-2.89C1033.19,1316.35,1030.17,1320.08,1031.09,1323.05z"/>
		<path class="st22" d="M1035.79,1324.74c1.56,0.93,0.68-7.62-3.06-7.29c-0.15,0.25-0.08,0.57,0.17,0.73
			C1036.38,1320.54,1034.8,1324.18,1035.79,1324.74z"/>
		<path class="st22" d="M1070.12,1349.86c1.74,0.78,3.68,0.41,2.18-0.58c-0.22-0.01-5.54-0.42-9.06-6.92
			c-0.14-0.26-0.46-0.35-0.72-0.21C1062.74,1346.48,1068.66,1349.34,1070.12,1349.86z"/>
		<path class="st12" d="M1216.11,1455.43c4.6-2.97,10.77-1.57,14.88,1.79c1.83,1.3,4.03-1.39,2.42-2.92
			c-4.94-5.88-13.59-8.49-20.83-5.43C1208.29,1451.1,1211.88,1457.78,1216.11,1455.43z"/>
		<path class="st12" d="M1228.49,1475.86c6.61,1.8,7.94-6.89,0.79-4.66l0.12,0.03C1225.8,1470.31,1225.1,1475.08,1228.49,1475.86z"
			/>
		<path class="st12" d="M1230.83,1471.88c7.83,0.64,5.9-8.73,0.26-4.89c0.14-0.05-0.65,0.11-0.51,0.07
			C1226.84,1466.87,1227.54,1471.8,1230.83,1471.88z"/>
		<path class="st12" d="M1233.42,1467.79l2.55-0.58c3.53-0.94,0.98-5.57-1.94-4.7c0,0-2.55,0.58-2.55,0.58
			C1227.95,1464.03,1230.5,1468.66,1233.42,1467.79z"/>
		<path class="st12" d="M1235.11,1463.89l2.55-0.58c3.53-0.94,0.98-5.57-1.94-4.7c0,0-2.55,0.58-2.55,0.58
			C1229.64,1460.13,1232.19,1464.76,1235.11,1463.89z"/>
		<path class="st13" d="M1070.36,1488.09c0,0,2.35-10.61-1.29-16.94c0,0-58.36-2.13-66.59-23.57c-8.83-23.03,32.1-35.61,29.86-79.44
			c-52.84,1.62-95.61,67.55-69.41,112.29C978.88,1507.66,1038.65,1499.67,1070.36,1488.09z"/>
		<path class="st16" d="M1019.68,1811.21c0,0,21.64,5.58,41.16-1.74c0,0,1.28-3.74,3.3-11.16c0,0-25.17,9.37-43.32,0
			C1020.47,1802.64,1020.09,1806.94,1019.68,1811.21z"/>
		<path class="st16" d="M942.52,1793.03c0.09,3.61,0.18,7.25,0.3,10.94c0,0,19.51,12.87,38.75,3.88c0,0,0.63-3.37,1.76-9.54
			C983.34,1798.31,962.62,1804.49,942.52,1793.03z"/>
		<path class="st24" d="M1202.66,1449.8c0,0,1.8,8.79,0.77,16.87c0,0-2.59,2.87-6.77,4.07c0,0-4.69-10.88-2.61-20.49
			C1194.05,1450.25,1198.43,1448.88,1202.66,1449.8z"/>
		<path class="st12" d="M1074.54,1471.58c0,0,11.13-2.45,14.95-3.12s13.27,3.59,15.33,5.89c2.06,2.3-1.2,7.9-2.68,9.5
			c-1.47,1.61-4.55-0.27-3.15-2.94c0.96-1.84,1.87-3.46,1.87-3.46s-5.15,0.49-7.96,0c0,0-8.26,9.24-18.15,9.13
			C1074.75,1486.57,1076.66,1478.72,1074.54,1471.58z"/>
		<path class="st12" d="M1074.75,1486.57c0,0,15.26,0,25.25-6.25c4.16-2.6,0-5.11,0-5.11l-11.31,0.54L1074.75,1486.57z"/>
		<path class="st12" d="M1074.54,1471.58l-5.47-0.43c0,0,3.23,5.17,1.29,16.94l4.39-1.52
			C1074.75,1486.57,1077.98,1479.43,1074.54,1471.58z"/>
		<path class="st24" d="M1069.61,1473.35c-0.06,0-0.12-0.01-0.19-0.02c-6.84-1.23-11.54-1.93-20.9-3.32l-7.54-1.12
			c-14.42-2.16-22.33-5.13-32.59-12.22c-4.18-2.89-6.82-7.13-7.65-12.27c-0.94-5.83,0.68-12.35,4.21-17.02
			c5.73-7.58,14.66-19.93,14.75-20.05c0.34-0.47,0.99-0.58,1.46-0.24c0.47,0.34,0.57,1,0.23,1.46c-0.09,0.12-9.03,12.48-14.78,20.08
			c-3.2,4.23-4.66,10.14-3.81,15.42c0.51,3.18,2.1,7.65,6.77,10.88c10.07,6.96,17.48,9.74,31.71,11.87l7.54,1.12
			c9.38,1.4,14.09,2.1,20.96,3.33c0.57,0.1,0.95,0.65,0.85,1.22C1070.55,1472.99,1070.11,1473.35,1069.61,1473.35z"/>
		<path class="st24" d="M1009.04,1500.14c-29.07,0-40.96-11.88-41.49-12.42c-0.4-0.42-0.39-1.08,0.02-1.48
			c0.41-0.4,1.08-0.39,1.48,0.02l0,0c0.14,0.14,13.99,13.87,47.81,11.51c34.16-2.38,54.29-12.3,54.49-12.4
			c0.52-0.26,1.15-0.05,1.41,0.47c0.26,0.52,0.05,1.15-0.47,1.41c-0.2,0.1-20.67,10.21-55.28,12.62
			C1014.22,1500.05,1011.57,1500.14,1009.04,1500.14z"/>
		<path class="st11" d="M1074.54,1475.75c0,0,1.74,4.64,0.21,10.82c0,0-2.37,1.55-4.39,1.52c0,0,0.51-7.43-0.76-12.03
			L1074.54,1475.75z"/>
		<path class="st22" d="M1074.7,1324.61c-0.08,0-0.15-0.02-0.22-0.05c-2.64-1.25-7.08-0.63-7.13-0.62
			c-0.28,0.04-0.55-0.16-0.59-0.44c-0.04-0.29,0.16-0.55,0.44-0.59c0.19-0.03,4.81-0.68,7.73,0.71c0.26,0.12,0.37,0.44,0.25,0.7
			C1075.08,1324.5,1074.9,1324.61,1074.7,1324.61z"/>
		<path class="st22" d="M1083.87,1329.26c-0.18,0-0.35-0.09-0.45-0.26c-1.1-1.86-3.67-2.96-3.7-2.97c-0.27-0.11-0.39-0.42-0.28-0.69
			c0.11-0.27,0.42-0.4,0.69-0.28c0.12,0.05,2.92,1.24,4.2,3.4c0.15,0.25,0.06,0.57-0.18,0.72
			C1084.05,1329.24,1083.96,1329.26,1083.87,1329.26z"/>
		<path class="st20" d="M1029.88,1368.26c-0.13,9.31,26.17,21.97,27.52,21.99l2.86-8.47c3.68,0.91,6.91,6.05,6.91,6.05
			c10.59-10.09,0.63-18.89-6.91-17.23c0,0,0,0.01,0.01,0.01c0.15,0.6,0.93,13.84-20.52-2.69
			C1036.79,1365.64,1029.88,1368.26,1029.88,1368.26z"/>
		<path class="st16" d="M1077.53,1473.72c0,1.33-2.88,2.41-6.42,2.41s-6.42-1.08-6.42-2.41s2.88-2.41,6.42-2.41
			S1077.53,1472.39,1077.53,1473.72z"/>
		<rect x="1064.69" y="1472.67" class="st16" width="12.85" height="1.05"/>
		<path class="st11" d="M1077.53,1472.67c0,1.33-2.88,2.41-6.42,2.41s-6.42-1.08-6.42-2.41s2.88-2.41,6.42-2.41
			S1077.53,1471.34,1077.53,1472.67z"/>
		<path class="st0" d="M1076.55,1472.51c0,0.91-2.44,1.65-5.44,1.65c-3.01,0-5.44-0.74-5.44-1.65s2.44-1.65,5.44-1.65
			C1074.12,1470.86,1076.55,1471.6,1076.55,1472.51z"/>
	</g>
	<g id="_x33_">
		<path class="st12" d="M1333.95,1308.15l-52.12-0.47c0.73-18.05,3.58-44.75,6.35-63.28l26.54,1.06l-10.04,37.34
			c-0.61,4.53,1.3,8.59,5.62,10.05c9.63,3.87,21.45,1.88,26.89,10.42C1338.28,1305.55,1336.48,1308.17,1333.95,1308.15z"/>
		<path class="st8" d="M1280.31,1302.69c0.19,1.75,0.48,3.92,1.35,5.46l52.32,0c2.54,0.02,4.39-2.46,3.57-4.86
			c-1.93-5.61-8.73-13.78-32.75-15.26c0,0-8.2,2.36-21.62-0.19C1283.17,1287.84,1279.5,1295.61,1280.31,1302.69z"/>
		<path class="st14" d="M1322.21,1301.31c0.41,0,0.81-0.24,0.98-0.65c1.95-4.7,5.41-6.11,5.56-6.17c2.76-4.21-5.13-1.27-7.51,5.36
			C1320.94,1300.53,1321.48,1301.33,1322.21,1301.31z"/>
		<path class="st14" d="M1314.01,1300.25c0.45,0,0.86-0.29,1.01-0.74c1.74-5.44,6.52-7.92,6.56-7.95c2.29-4.89-6.56,0.26-8.58,7.31
			C1312.78,1299.54,1313.31,1300.26,1314.01,1300.25z"/>
		<path class="st14" d="M1304.68,1299.02c0.43,0,0.84-0.27,0.99-0.7c2.02-5.65,6.61-8.7,6.65-8.73c1.7-5.11-6.28,1-8.64,8.02
			C1303.43,1298.28,1303.97,1299.03,1304.68,1299.02z"/>
		<path class="st27" d="M1337.52,1303.21l-57.21-0.51c0.19,1.75,0.66,3.45,1.52,4.99l52.14,0.47
			C1336.55,1308.18,1338.41,1305.62,1337.52,1303.21z"/>
		<path class="st12" d="M1339.25,886.09c-64.28,32-81.38,106.54-40.16,164.56c5.82,9.75,18.26,1.31,12.47-8.15
			c-17.48-45.49-5.19-94.52,44.93-108.76c-0.01,0.03-0.17,0.09-0.23,0.12C1387.45,922.6,1370.53,875.11,1339.25,886.09z"/>
		<path class="st13" d="M1275.21,983.17c5.84,4.13,31.88,1.55,41.41-4.05l41.42-93.54C1318.38,877.31,1271.35,940.74,1275.21,983.17
			z"/>
		<path class="st23" d="M1291.68,985.3c3.99-0.2,8.64-0.87,13.89-2.3l1.97-37.28C1307.54,945.72,1295.77,960.99,1291.68,985.3z"/>
		<path class="st12" d="M1353.43,932.61c68.34,39.35,133.78,32.23,162.93-47.78c2.69-10.19-10.51-13.34-14.41-3.98
			c-36.18,51.75-72.06,49.28-118.08,11.23c0-0.01-0.11-0.1,0.05,0C1357.32,872.26,1327.02,912.56,1353.43,932.61z"/>
		<path class="st12" d="M1392.82,1308.08l-51.36,0.07c-1.91-12.7,9.3-54.15,12.42-65.85l27.88,5.82l-14.07,33.64
			c0,0-6.5,8.86,2.08,11.26c9.53,3.24,19.71,2.1,26.19,8.8C1397.89,1304.4,1396.04,1308.08,1392.82,1308.08z"/>
		<path class="st8" d="M1339.89,1303.18c0.21,1.75,0.7,3.44,1.58,4.97l52.15-0.07c2.54,0,4.37-2.5,3.52-4.89
			c-1.99-5.59-8.87-13.69-32.91-14.92c0,0-8.17,2.44-21.62,0.03C1342.6,1288.3,1339.01,1296.1,1339.89,1303.18z"/>
		<path class="st14" d="M1381.76,1301.37c0.42,0,0.81-0.25,0.98-0.66c1.9-4.72,5.35-6.16,5.49-6.22c2.71-4.24-5.14-1.22-7.45,5.43
			C1380.5,1300.59,1381.03,1301.38,1381.76,1301.37z"/>
		<path class="st14" d="M1373.55,1300.39c0.45,0,0.87-0.29,1.01-0.75c1.67-5.43,6.44-7.99,6.48-8.02c2.23-4.92-6.56,0.33-8.5,7.4
			C1372.33,1299.68,1372.86,1300.4,1373.55,1300.39z"/>
		<path class="st14" d="M1364.21,1299.25c0.44,0,0.85-0.27,1-0.71c1.96-5.67,6.52-8.77,6.56-8.8c1.15-0.74-0.04-2.53-1.17-1.76
			c-0.21,0.14-5.18,3.49-7.39,9.86C1362.97,1298.52,1363.5,1299.26,1364.21,1299.25z"/>
		<path class="st27" d="M1397.1,1303.1l-57.22,0.08c0.21,1.75,0.7,3.44,1.58,4.97l52.15-0.07
			C1396.18,1308.08,1398.02,1305.5,1397.1,1303.1z"/>
		<path class="st23" d="M1275.21,983.17c-0.45,1.28,19.88,3.43,26.33,0.8l-3.7-4.86c0,0-11.55,2.01-22.54-2.05
			C1275.2,979.09,1275.18,981.13,1275.21,983.17z"/>
		<path class="st13" d="M1397.68,1041.6l-109.64-16.69c23.7-167.88,103.01-174.07,115.88-79.19
			C1407.73,969.81,1401.26,1027.58,1397.68,1041.6z"/>
		<path class="st23" d="M1403.15,1003.9c1.38-28.8-11.46-56.61-11.46-56.61l12.23-1.57
			C1405.91,965.29,1404.88,986.45,1403.15,1003.9z"/>
		<path class="st11" d="M1276.74,1269.27c0,0,19.6,10.27,38.22,4.37c24.45-59.11,36.04-139.79,29.7-198.33
			c1.67-2.55,34.26,83.15-1.06,198.81c0,0,12.74,10.39,30.3,6.93c21.46-41.23,70.84-140.56,28.69-271.94
			c-13.9-5.42-93.74-13.12-110.48-4.99c0,0-18.07,33.23-9.74,78.11c11.08,59.76-0.1,149.01-4.22,177.75h-0.02
			C1277.29,1265.92,1276.74,1269.27,1276.74,1269.27z"/>
		<path class="st16" d="M1378.8,1272.14c-3,5.8-4.89,8.92-4.89,8.92c-17.57,3.45-30.32-6.93-30.32-6.93c0.82-2.9,1.61-5.76,2.36-8.6
			C1345.95,1265.53,1358.88,1276.14,1378.8,1272.14z"/>
		<path class="st16" d="M1292.32,999.25c0,0,45.73-14.43,110.6,6.84c0,0,2.71,4.68,1.48,8.48c0,0-69.45-14.29-115.01-4.48
			C1289.39,1010.1,1288.95,1004.47,1292.32,999.25z"/>
		<path class="st13" d="M1363.85,885.84c-6.51,57.36,42.64,97.11,104.64,61.68l0-0.01c3.75-2.59,5.62-4.54,5.62-4.54
			c0.92-17.43-11.5-26.41-11.5-26.41c-11.81,1.44-31.17,2.49-45.2-5.03C1388.33,895.27,1363.85,885.84,1363.85,885.84z"/>
		<path class="st28" d="M1376.04,795.54c-14.16-2.87-35.01,3.85-41.77,30.47c-5.48,21.56-26.73,18.12-42.59,44.01
			c-16.58,27.06-3.26,51.4,20.66,65.38c44.06,26.43,115.53-21.56,92.97-73.89C1395.76,838.87,1400.34,800.47,1376.04,795.54z"/>
		<path class="st23" d="M1455.59,917.27c0,0,13.24,9.8,12.9,30.24c3.75-2.59,5.62-4.54,5.62-4.54c0.92-17.43-11.5-26.41-11.5-26.41
			S1459.88,916.98,1455.59,917.27z"/>
		<path class="st16" d="M1276.74,1269.27c0,0,19.6,10.27,38.22,4.37c-0.01,0,1.01-2.8,2.59-7.49c0,0.02-19.18,4.27-39.42-6.17
			C1277.29,1265.92,1276.74,1269.27,1276.74,1269.27z"/>
		<path class="st16" d="M1308.21,1269.66h8.13c23.58-56.7,34.47-138.67,28.31-194.23c0,0-10-5.69-11.64-20.78
			C1337.72,1112.54,1344.56,1176.95,1308.21,1269.66z"/>
		
			<rect x="1488.95" y="765.78" transform="matrix(0.2174 -0.9761 0.9761 0.2174 390.7469 2143.4863)" class="st8" width="86.21" height="124.59"/>
		<g>
			<path class="st1" d="M1527.18,842.37l6.07,1.35c1.11,0.25,2.21-0.43,2.49-1.53l10.79-42.54c0.14-0.55,0.05-1.13-0.25-1.61
				c-0.3-0.48-0.78-0.82-1.33-0.95l-8.56-1.91c-0.55-0.12-1.13-0.02-1.61,0.29c-0.47,0.31-0.8,0.8-0.91,1.36l-8.29,43.1
				C1525.36,841.04,1526.07,842.12,1527.18,842.37z"/>
			<path class="st1" d="M1529.52,846.17c-4.17-0.93-8.04,1.63-9,5.95c-0.96,4.32,1.45,8.28,5.62,9.21c4.24,0.94,8.02-1.56,9-5.95
				C1536.12,850.99,1533.75,847.12,1529.52,846.17z"/>
		</g>
		<path class="st12" d="M1513.16,859.12c4.68-0.31-0.94,5.49-0.06,8.91l16.63,3.7c0,0-2.13,8.35-14.95,17.27
			c-2.91,2.02-12.83-4.67-12.83-8.15C1501.95,874.01,1509.56,859.36,1513.16,859.12z"/>
	</g>
	<g id="_x32_">
		<path class="st13" d="M2047.93,1306.58c-0.94,0.48,11.61,0.39,10.8,1.33c-26.42,22.85-65.83,30.08-95.07,7.83v-0.03
			c-8.7-6.37-17.5-16.61-23.61-27.33l7.18-11.64c57.02,35.17,79.59-24.85,125.96-29.53l-9.28,13.55L2047.93,1306.58z"/>
		<path class="st12" d="M2111.24,1708.65l0.87-0.45c0,0.61,0.75,2.72,1.36,2.72l25.73,0.53c0.61,0,0.98-1.15,0.98-1.76l2.19-0.63
			c0-3.85-0.32-5.25-2.02-8.23c-6.26-8.31,1.21-45.49,1-55.21c1.54-2.66-27.09-0.57-27.49-1.2c-0.64,0-1.15,0.55-1.1,1.19
			l3.37,42.48C2117.65,1696.17,2111.46,1701.04,2111.24,1708.65z"/>
		<path class="st12" d="M1999.71,1712.35h51.25c4.47-0.18,4.44-4.74,3.61-8.28c-2.82-12.75,2.17-42.04,3.09-55.15
			c0.25-2.4-1.64-4.49-4.05-4.49H2031c-2.45,0-4.35,2.15-4.04,4.58l4.11,32.8c2.23,14.25-14.76,16.96-24.45,18.54
			C2000.24,1700.81,1989.57,1709.51,1999.71,1712.35z"/>
		<path class="st11" d="M2056.53,1707.03c-0.14,2.51-1.38,5.38-4.29,5.32c0,0-53.16,0-53.16,0c-12.54-4.65,6.25-21.28,30.79-21.19
			C2047.32,1695.95,2057.12,1682.35,2056.53,1707.03z"/>
		<path class="st11" d="M2138.3,1712.35h-22.72c-11.07-1.51-3.1-22.76,11.36-21.22C2141.43,1689.29,2149.37,1710.86,2138.3,1712.35z
			"/>
		<path class="st16" d="M1995.36,1707.03h61.17c-0.23,1.87-0.74,3.68-1.68,5.32h-55.77
			C1996.33,1712.35,1994.38,1709.6,1995.36,1707.03z"/>
		<path class="st16" d="M2138.3,1712.35h-22.72c-2.89,0-5.22-2.43-5.04-5.32h32.8C2143.52,1709.92,2141.19,1712.35,2138.3,1712.35z"
			/>
		<path class="st13" d="M2066.07,1188.73c0,0-0.27-16.61,14.75-19.56l7.87,8.17L2066.07,1188.73z"/>
		<path class="st11" d="M2144.94,1683.36c0,0-24.23,5.89-36.72-0.44c-6.5-40.75-24.53-154.2-30.82-231.95
			c-0.24,4.53-13.44,187.37-15.95,231.95c-8.62,2.88-25.95,6.36-35.65-0.62c-4.36-46.93-18.35-201.45,2.73-327.65
			c0,0,57.75,6.42,102.84-7.2C2143.79,1387.47,2147.08,1635.32,2144.94,1683.36z"/>
		<path class="st16" d="M2035.13,1678.4c-5.92-134.88,7.67-250.89,5.63-252.28C2037.2,1426.41,2023.54,1543.45,2035.13,1678.4z"/>
		<path class="st16" d="M2125.87,1678.4c-2.35-138.6-22.95-269.89-26.06-270.39C2097.49,1409.76,2117.73,1539.53,2125.87,1678.4z"/>
		<path class="st12" d="M2072.77,1246.75c-1.26-10.99,0.46-26.84,1.99-33.37c2.76-12.87,23.16-7.89,19.77,4.76
			c-0.66-0.41-2.76,22.9-1.31,29.37C2112.37,1253.26,2054.79,1272.14,2072.77,1246.75z"/>
		<path class="st21" d="M2094.73,1217.08c-0.05,0.35-0.11,0.71-0.2,1.06c-0.47-0.31-1.8,12.55-1.81,21.88
			c-8.77,3.99-18.55,2.23-20.34,1.87c-0.19-11.83,0.89-22.6,2.63-29.36C2078.56,1201.08,2096.54,1205.25,2094.73,1217.08z"/>
		<path class="st12" d="M2108.33,1212.28c-2.91,8.79-7.59,18.47-15.67,23.3l-0.01,0c-3.28,1.94-7.01,2.88-10.85,3.02
			c-21.6,2.91-42.88-26.49-23.44-41.13c3.2-2.28,6.01-5.6,7.71-8.74C2083.39,1155.34,2118.9,1181.55,2108.33,1212.28z"/>
		<path class="st29" d="M2063.24,1215.75l12.8-4.14C2076.11,1218.86,2067.56,1222.35,2063.24,1215.75z"/>
		<path class="st24" d="M2035.29,1293.23l-8.89,32.63c-19.05,5.85-39.36,4.53-57.27-6.47c19.69,11.12,46.76,4.85,51.03-1.68
			C2024.65,1310.79,2034.67,1294.23,2035.29,1293.23z"/>
		<path class="st13" d="M2139.78,1401.92c-2.06,2.51-4.26,5.02-6.59,7.55c0,0-11.35,2.13-20.23-9.69
			c36.23-76.81-33.72-83.98-19.74-152.27C2139.96,1253.03,2204.98,1322.79,2139.78,1401.92z"/>
		<path class="st22" d="M2074.79,1201.18c-0.57-1.7,2.11-2.56,2.63-0.85C2078,1202.04,2075.31,1202.9,2074.79,1201.18z"/>
		<path class="st22" d="M2063.62,1197.4c-0.57-1.7,2.11-2.56,2.63-0.85C2066.82,1198.26,2064.14,1199.12,2063.62,1197.4z"/>
		<path class="st21" d="M2108.33,1212.28c-2.91,8.79-7.59,18.47-15.67,23.3l-0.01,0c-0.67,0.4-1.36,0.75-2.07,1.07
			c6.29-4.51,11.29-15.55,11.29-15.55l0.3-9.98c-7.33-10.28-1.96-19.65-1.96-19.65c-15.3,1.75-18.78-8.07-18.78-8.07
			c-4.73-0.15-9.22-3.26-9.22-3.26C2093.25,1159.01,2117.46,1189.16,2108.33,1212.28z"/>
		<path class="st22" d="M2063.24,1216.28c0.29-0.33,13.96-3.82,13.3-4.83c0.26-1.28-13.2,3.99-13.46,3.81
			C2062.52,1215.42,2062.66,1216.3,2063.24,1216.28z"/>
		<path class="st22" d="M2066.94,1210.06c0.9,0.28,1.67-0.98,0.5-1.08c-1.84,0.35-5.86-1.55-3.64-2.46
			c3.18-1.09,8.15-8.37,5.24-7.07c-0.03,0.05-2.79,5.1-5.59,6.08C2059.61,1207.43,2064.28,1210.06,2066.94,1210.06z"/>
		<path class="st24" d="M2139.78,1401.92c-2.06,2.51-4.26,5.02-6.59,7.55c0,0-11.55,1.62-20.44-10.2c1.31-3.17,2.75-5.23,3.86-8.38
			C2116.61,1390.89,2123.48,1398.57,2139.78,1401.92z"/>
		<path class="st16" d="M2134.01,1410.99c2.45,0.73,5.02-2.16,1.7-3c-17.98,0.78-22.77-11.09-22.97-11.59
			C2104.94,1392.01,2114.52,1412.07,2134.01,1410.99z"/>
		<path class="st20" d="M2020.14,1408.89c0,0,3.53,15.13,31.75,22.59c8.08,2.14,12.76,1.08,13.94-4.52c0.6-2.82,2.13-7.71,4.96-9.53
			c0,0,6.32,2.73,8.7,6.6c5.22,8.48,13.1,0.78,16.93-8.1c4.74-10.98,16.75-20.29,19.38-29.5L2020.14,1408.89z"/>
		<path class="st13" d="M2135.16,1390.19c-0.92,1.63-1.47,1.37-2.41,0.42c-25.36-18.94-34.43,22.44-61.76,23.18
			c-27.81,2.75-43.28,4.32-50.86-4.91c-13.23-20.5,7.81-112.13,24.82-134.32c7.45-11.54,20.68-21.82,27.79-27.81
			c-0.15,0.6-3.93,16.36,20.47,0.75c1.23,0.52,8.96,8.06,8.48,12.1C2102.94,1278.17,2146.96,1369.35,2135.16,1390.19z"/>
		<path class="st13" d="M2064.74,1165.06c0,0,7.15-1.97,14.49,0.91c0.84-2.78,2.55-5.35,5.34-7.38c1.2,3.38,2.9,6.63,4.83,9.65
			c0.66-6.36,4.58-11.51,4.58-11.51c1.05,6.09,9.46,10.47,13.43,17.06l0.22-0.31c0,0,22.23,8,6.21,27.7l0,0
			c-0.66,7.29-4.22,14.67-4.22,14.67c-11.78-10.76-9.24-23.69-3.89-27.05c-9.6,3.4-18.15-0.63-22.98-7
			C2075.6,1180.62,2066.88,1176.73,2064.74,1165.06z"/>
		<path class="st24" d="M2120.48,1396.01l-5.56-1.16c22.23-50.04-3.91-71.19-17.74-99.38
			C2129.25,1332.58,2134.1,1352.92,2120.48,1396.01z"/>
		<path class="st12" d="M2113.33,1217.76c-3.68,9.88-16.09,5.1-12.19-4.7C2104.82,1203.19,2117.23,1207.97,2113.33,1217.76z"/>
		<path class="st22" d="M2109.82,1219.37c2.27-2.38,2.27-6.37,1.23-7.47c-1.89-1.94-5.46-1.71-5.47-0.58
			c0.48,1.13,2.91-0.72,4.64,1.23C2112.1,1214.01,2108.36,1218.76,2109.82,1219.37z"/>
		<path class="st22" d="M2105.11,1217.87c0.8-0.06,2.1-3.68,6.06-3.45c0.29,0.03,0.54-0.19,0.57-0.47
			C2109.16,1211.34,2102.78,1217.92,2105.11,1217.87z"/>
		<path class="st20" d="M2100.73,1248.85c0.13,9.31-23.75,17.53-25.1,17.54l-2.86-8.47c-3.68,0.91-6.91,6.05-6.91,6.05
			c-10.59-10.09-0.63-18.89,6.91-17.23c0,0,0,0.01-0.01,0.01c-0.15,0.6-1.81,14.41,20.38,0.27
			C2095.99,1245.71,2100.73,1248.85,2100.73,1248.85z"/>
		<path class="st16" d="M2061.46,1682.92c0.02-0.04-3.13,1.16-7.48,1.99c0,0,12.18-181.44,13.99-205.65
			c1.81-24.21,9.44-28.29,9.44-28.29S2061.26,1679,2061.46,1682.92z"/>
		<path class="st16" d="M2061.94,1674.12c-0.33,5.23-0.5,8.36-0.48,8.8c-8.62,2.88-25.95,6.36-35.65-0.62c0,0-0.31-2.87-0.81-8.17
			C2025,1674.12,2041.99,1681.93,2061.94,1674.12z"/>
		<path class="st16" d="M2144.94,1683.36c0,0-24.23,5.89-36.72-0.44c0,0-0.52-3.15-1.42-8.8c0,0,16.51,4.78,37.87,0
			C2144.78,1679.62,2144.86,1682.9,2144.94,1683.36z"/>
		<path class="st24" d="M1953.83,1280.47c-1.61,7.39-10.45,13.28-10.45,13.28c-1.13-1.71-2.26-3.53-3.33-5.37l7.18-11.64
			C1949.4,1277.93,1951.79,1279.46,1953.83,1280.47z"/>
		<path class="st15" d="M1963.62,1315.64c0.29,0.23,0.58,0.45,0.87,0.71c-0.29-0.23-0.55-0.42-0.84-0.61v-0.03
			C1963.62,1315.67,1963.62,1315.64,1963.62,1315.64z"/>
		<path class="st22" d="M2082.27,1200.82c0.05,0,0.1-0.01,0.15-0.02c0.32-0.08,0.51-0.41,0.43-0.73c-0.04-0.18-1.17-4.43-7.4-6.55
			c-0.31-0.11-0.66,0.06-0.76,0.37c-0.11,0.31,0.06,0.65,0.37,0.76c5.58,1.9,6.59,5.56,6.63,5.71
			C2081.76,1200.64,2082.01,1200.82,2082.27,1200.82z"/>
		<path class="st12" d="M1940.05,1288.38c0,0-12.55,0.3-16.37-5.27c-3.82-5.57-2.73-15.05,0.91-15.59
			c10.35-1.55,22.41,8.61,22.64,9.2c0.01,0.02,0,0.03,0,0.04C1947.28,1277.15,1945.7,1283.92,1940.05,1288.38z"/>
		<path class="st22" d="M2064.23,1193.06c0.14,0,0.28-0.05,0.39-0.14c2.38-2.03,5.91-0.28,5.95-0.26c0.3,0.15,0.66,0.03,0.81-0.26
			c0.15-0.3,0.03-0.66-0.26-0.81c-0.17-0.09-4.28-2.13-7.27,0.42c-0.25,0.21-0.28,0.59-0.07,0.85
			C2063.89,1192.99,2064.06,1193.06,2064.23,1193.06z"/>
		<path class="st13" d="M1930.61,1301.66l-27.41-136.78c-0.06-0.28,0.12-0.55,0.4-0.6c0.27-0.05,0.53,0.12,0.6,0.38l32.92,135.56
			c0.43,1.79-0.66,3.59-2.45,4.03c-1.79,0.43-3.59-0.66-4.03-2.45C1930.63,1301.75,1930.61,1301.7,1930.61,1301.66z"/>
		<path class="st12" d="M1932.85,1276.31c-3.81-13.51-13.87-8.49-14.07-12.76c0.7-3.11,5.25-1.71,7.62-1.48
			c4.01,0.9,7.59,3.46,10.14,6.63C1944.65,1277.36,1935.65,1282.16,1932.85,1276.31z"/>
		<path class="st12" d="M1924.71,1284.76c-6.92-0.35-5.65-8.58,0.54-4.62l-0.12-0.01
			C1928.77,1280.26,1928.12,1284.96,1924.71,1284.76z"/>
		<path class="st12" d="M1923.59,1280.36c-8.14-2.08-2.46-9.69,1.1-4.69c-0.07-0.09,0.3,0.18,0.42,0.19
			c0.02,0.01,0.16,0.05,0.05,0.02C1928.73,1276.73,1926.71,1281.19,1923.59,1280.36z"/>
		<path class="st12" d="M1922.27,1275.79c-6.07-2.27-2.88-6.68,0.87-5.15C1929.21,1272.91,1926.02,1277.32,1922.27,1275.79z"/>
		<path class="st12" d="M1921.74,1271.64c-6.07-2.27-2.88-6.68,0.87-5.15C1928.69,1268.76,1925.5,1273.17,1921.74,1271.64z"/>
	</g>
	<g id="_x31_">
		<path class="st12" d="M577.38,1736.2l-44.68-22.65c1.38-2.2,6.88-6.93,9.76-16.75c15.58-53,40.28-103.97,44.11-112.16l41.4,8.57
			l-65.11,107.95c-2.49,3.69-2,8.62,1.14,11.77c6.66,7.23,16.28,10.43,18.87,19.22C583.41,1735.24,580.18,1737.62,577.38,1736.2z"/>
		<path class="st8" d="M533.53,1708.54c-0.59,1.61-0.91,3.3-0.83,5.02l45.36,22.99c2.21,1.12,4.9-0.24,5.22-2.69
			c0.74-5.73-1.66-15.82-22.02-27.51c0,0-8.19-1.49-18.81-9.53C542.46,1696.81,535.9,1702,533.53,1708.54z"/>
		<path class="st14" d="M570.75,1725.49c0.36,0.18,0.81,0.13,1.13-0.15c3.74-3.26,7.37-2.99,7.53-2.98
			c1.32,0.14,1.52-1.95,0.19-2.05c-0.19-0.02-4.63-0.39-9.07,3.48C569.97,1724.24,570.1,1725.18,570.75,1725.49z"/>
		<path class="st14" d="M564.04,1721c0.39,0.19,0.87,0.12,1.19-0.21c3.85-3.98,9.13-4.1,9.18-4.1c4.31-3.2-5.94-2.63-10.66,2.67
			C563.27,1719.85,563.42,1720.71,564.04,1721z"/>
		<path class="st14" d="M556.42,1715.89c0.38,0.18,0.85,0.12,1.17-0.18c4.22-4.06,9.54-4.74,9.59-4.74
			c3.93-3.65-6.04-1.86-11.02,3.26C555.65,1714.69,555.79,1715.59,556.42,1715.89z"/>
		<path class="st27" d="M583.3,1733.77l-49.77-25.23c-0.59,1.61-0.91,3.3-0.83,5.02l45.36,22.99
			C580.3,1737.68,583.03,1736.26,583.3,1733.77z"/>
		<path class="st12" d="M719.42,1735.16l-50.82-0.14c-0.86-2.68,2-14.91,1.2-19.35c-17.09-94.34-14.66-127.82-14.95-131.56
			l48.51-3.75l-13.39,130.02c-0.57,4.42,2.08,8.6,6.31,10c9.41,3.72,20.92,1.7,26.28,9.99
			C723.63,1732.6,721.89,1735.16,719.42,1735.16z"/>
		<path class="st8" d="M667.08,1730.16c0.2,1.7,0.67,3.36,1.51,4.85l50.85,0.14c2.47,0.01,4.27-2.42,3.46-4.76
			c-1.91-5.46-8.59-13.39-32.03-14.68c0,0-7.98,2.35-21.08-0.06C669.79,1715.66,666.26,1723.26,667.08,1730.16z"/>
		<path class="st14" d="M708.6,1728.32c1.7-4.15,5.53-6.66,5.67-6.44c1.24-0.47,0.48-2.42-0.75-1.92c-0.17,0.07-4.31,1.74-6.54,7.18
			C706.55,1728.1,707.83,1729.02,708.6,1728.32z"/>
		<path class="st14" d="M700.6,1727.33c1.55-4.83,6.55-8.52,6.67-8.27c1.19-0.59,0.23-2.46-0.95-1.83
			c-0.22,0.12-5.46,2.88-7.38,9.01C698.61,1727.19,699.86,1728,700.6,1727.33z"/>
		<path class="st14" d="M691.49,1726.18c2.36-6.84,7.99-8.76,7.04-10.42c-1.4-1.63-5.99,2.79-8.67,9.29
			C689.48,1726.01,690.74,1726.87,691.49,1726.18z"/>
		<path class="st27" d="M722.87,1730.32l-55.79-0.16c0.2,1.7,0.67,3.36,1.51,4.85l50.85,0.14
			C721.95,1735.17,723.76,1732.66,722.87,1730.32z"/>
		<path class="st12" d="M682.48,1365.25c63.19-13.95,100.37-76.78,100.83-138.69c0.29-7.2-10.23-9.66-13.2-3.2
			c-23.34,52.04-39.79,86.04-97.32,104.28C648.22,1334.1,657.87,1371.48,682.48,1365.25z"/>
		<path class="st12" d="M641.28,1327.55c-72.84,2.68-148.77,78.18-51.52,118.25c9.9,3.72,13.88-7.92,5.91-13.42
			c-54.97-44.13,10.74-59.88,50.03-66.25C670.72,1362.52,666.41,1325.38,641.28,1327.55z"/>
		<path class="st13" d="M542.62,1387.48c0.54,2.42,1.41,3.68,1.41,3.68c-0.36-0.61,22.74-1.92,30.02,7.85
			c3.63-0.09,11.29-3.54,14.96-8.33c6.44-7.09,19.88-12.27,26.03-14.56l31.26-59.54C631.05,1310.7,537.48,1342.98,542.62,1387.48z"
			/>
		<path class="st11" d="M706.67,1580.36c-0.55,6.53-0.95,10.35-0.95,10.35c-64.06,23.35-125.79,0.31-125.79,0.31
			c0.07-2.66,0.02-5.39-0.13-8.18c-1.44-28.36-12.67-63.32-7.69-98.6c5.47-38.73,19-60.03,19-60.03l106.42,5.69
			C714.21,1468.08,709.1,1551.22,706.67,1580.36z"/>
		<path class="st12" d="M766.16,1205.14c2.77-0.55,2.99,6.15,4.84,7.95c2.01-4.07,2.85-8.75,2.88-8.77
			c-0.02-5.62-0.35-11.23-0.93-16.83c3.54-7.78,5.34,13.65,5.9,15.72c0.03,0,0.06,0.01,0.08,0.01c1.21-5.76,2.1-11.6,2.49-17.48
			c5.4-7.18,2.16,16.58,2.08,18.81c0.01,0.01,0.02,0.01,0.04,0.02c2.05-5.23,3.47-10.71,4.28-16.27c6.09-6.75,0.92,17.13,0.11,19.24
			c0.02,0.01,0.03,0.03,0.05,0.04c2.21-3.87,3.92-8.03,5.41-12.23c6.57-5.47-0.84,14.55-1.78,16.4c-0.01,1.6-3.18,9.22-8.99,17.42
			c-1.9,2.68-10.51-0.6-11.89-3.52c-1.3-2.74-2.01-6.81-2.3-8.28C767.39,1214.61,763.46,1207.19,766.16,1205.14z"/>
		<path class="st16" d="M593.22,1587.23l-4.22-0.42c0.02-0.25,2.44-25.9-1.77-72.46c-4.28-47.34,13.7-90.53,13.89-90.96l3.9,1.65
			c-0.18,0.42-17.75,42.68-13.57,88.93C595.71,1560.98,593.25,1586.97,593.22,1587.23z"/>
		<path class="st16" d="M693.7,1589.49l-4.2-0.57c10-73.84-6.47-159.29-6.64-160.14l4.16-0.81
			C687.19,1428.82,703.79,1514.96,693.7,1589.49z"/>
		<path class="st16" d="M676.06,1593.34l-4.23-0.27c3.52-56.03-4.2-161.72-4.28-162.78l4.23-0.31
			C671.85,1431.05,679.59,1537.02,676.06,1593.34z"/>
		<path class="st16" d="M657.02,1593.22l-4.24-0.01c0-0.42,0.08-42.22-3.08-78.13c-3.19-36.17-0.04-84.59,0-85.08l4.23,0.28
			c-0.03,0.48-3.16,48.58,0,84.42C657.11,1550.81,657.02,1592.8,657.02,1593.22z"/>
		<path class="st16" d="M630.09,1593.28l-4.23-0.14c0.01-0.4,1.33-40.08,0-78.18c-1.34-38.38,6.33-85.6,6.4-86.07l4.18,0.69
			c-0.08,0.47-7.67,47.28-6.35,85.24C631.43,1553.06,630.11,1592.88,630.09,1593.28z"/>
		<path class="st16" d="M611.41,1589.46l-4.22-0.39c1.6-17.11,1.2-33.54,0.58-58.43c-0.18-7.4-0.39-15.79-0.56-24.99
			c-0.71-39,9.92-78.41,10.02-78.8l4.09,1.12c-0.11,0.39-10.57,39.23-9.87,77.61c0.17,9.19,0.37,17.57,0.56,24.96
			C612.6,1554.67,613.03,1572.11,611.41,1589.46z"/>
		
			<rect x="644.59" y="1298.07" transform="matrix(0.0922 -0.9957 0.9957 0.0922 -705.8205 1840.1571)" class="st12" width="23.47" height="18.23"/>
		<path class="st12" d="M633.08,1277.48c-1.82,35.78,55.85,35.85,53.52-0.47c-0.13-7.17-2.23-12.12-2.37-23.55
			c-0.33-26.45-37.43-31.29-43.32-4.21C638.59,1259.94,633.92,1267.54,633.08,1277.48z"/>
		<path class="st24" d="M570.98,1396.26c1.09,0.8,2.12,1.71,3.06,2.74c0,0,8.15-0.43,14.96-8.33c5.51-6.38,19.14-11.97,24.14-13.87
			l-5.31-16.71c0,0-13.92,12.62-21.09,25.04C579.76,1397.26,571.38,1396.31,570.98,1396.26z"/>
		<path class="st13" d="M591.12,1424.21c0,0,43.65,16.13,106.42,5.69c1.44-15.14,1.45-44.18-2.48-63.11
			c-8.32-62.32-80.54-81.58-92.75,18.95C599.48,1402.61,597.78,1410.32,591.12,1424.21z"/>
		<path class="st13" d="M664.42,1318.68l30.65,48.12c39.27-11.49,85.9-46.99,81.08-77.76l-0.01,0c-1.07-4.12-2.96-6.36-2.96-6.36
			c-17.08,0.11-26.33-12.91-26.33-12.91C719.96,1275.87,722.87,1314.81,664.42,1318.68z"/>
		<path class="st25" d="M681.55,1239.71c0,0,13.74,4.55-0.87,26.54c-9.03,13.59,14,34.16-4.47,52.6
			c-42.86,56.36-165.28,27.73-98.55-32.83c20.01-10.76,19.14-21.77,25.86-35.6C612.46,1231.99,653.03,1197.35,681.55,1239.71z"/>
		<path class="st24" d="M542.62,1387.48c0.54,2.42,1.41,3.68,1.41,3.68c-0.36-0.61,22.74-1.92,30.02,7.85c0,0,2.5-0.13,5.89-1.59
			C579.93,1397.41,565.6,1378.25,542.62,1387.48z"/>
		<path class="st24" d="M738.84,1272.31c20.15,22.46,37.3,16.73,37.3,16.73c-1.07-4.12-2.96-6.36-2.96-6.36
			c-17.08,0.11-26.33-12.91-26.33-12.91C743.82,1269.99,741.21,1270.89,738.84,1272.31z"/>
		<path class="st24" d="M684.94,1358.49c0.39,1.06,13.09,35.23,13.18,58.08c0.44-13.64-0.13-34.44-3.07-49.77
			C694.78,1366.76,691.31,1365.31,684.94,1358.49z"/>
		<path class="st16" d="M706.67,1580.36c-0.55,6.53-0.95,10.35-0.95,10.35c-64.06,23.35-125.79,0.31-125.79,0.31
			c0.07-2.66,0.02-5.39-0.13-8.18l0.01-0.01C579.81,1582.83,648,1602.85,706.67,1580.36z"/>
	</g>
</g>
</svg>
